{
 "cells": [
  {
   "cell_type": "code",
   "execution_count": 7,
   "metadata": {},
   "outputs": [],
   "source": [
    "from mylab.Cvideo import Video\n",
    "import glob,os"
   ]
  },
  {
   "cell_type": "code",
   "execution_count": 5,
   "metadata": {},
   "outputs": [],
   "source": [
    "dirpath=r\"\\\\10.10.47.163\\Data_archive\\qiushou\\miniscope_result\\Results_206552\""
   ]
  },
  {
   "cell_type": "code",
   "execution_count": 6,
   "metadata": {},
   "outputs": [
    {
     "data": {
      "text/plain": [
       "['\\\\\\\\10.10.47.163\\\\Data_archive\\\\qiushou\\\\miniscope_result\\\\Results_206552\\\\20201112_232843_30fps_20200730\\\\msCam_concat.avi',\n",
       " '\\\\\\\\10.10.47.163\\\\Data_archive\\\\qiushou\\\\miniscope_result\\\\Results_206552\\\\20201112_233105_30fps_20200731\\\\msCam_concat.avi',\n",
       " '\\\\\\\\10.10.47.163\\\\Data_archive\\\\qiushou\\\\miniscope_result\\\\Results_206552\\\\20201112_233301_30fps_20200801\\\\msCam_concat.avi',\n",
       " '\\\\\\\\10.10.47.163\\\\Data_archive\\\\qiushou\\\\miniscope_result\\\\Results_206552\\\\20201112_233436_30fps_20200804\\\\msCam_concat.avi',\n",
       " '\\\\\\\\10.10.47.163\\\\Data_archive\\\\qiushou\\\\miniscope_result\\\\Results_206552\\\\20201112_233609_30fps_20200805\\\\msCam_concat.avi']"
      ]
     },
     "execution_count": 6,
     "metadata": {},
     "output_type": "execute_result"
    }
   ],
   "source": [
    "videos = glob.glob(os.path.join(dirpath,\"*30fps*/*.avi\"))\n",
    "videos"
   ]
  },
  {
   "cell_type": "code",
   "execution_count": 8,
   "metadata": {},
   "outputs": [
    {
     "name": "stdout",
     "output_type": "stream",
     "text": [
      "video haven't been tracked\n",
      "\\\\10.10.47.163\\Data_archive\\qiushou\\miniscope_result\\Results_206552\\20201112_232843_30fps_20200730\\msCam_concat.avi is as large as 6.29GB\n",
      "ffmpeg version N-93532-g772c73e61f Copyright (c) 2000-2019 the FFmpeg developers\n",
      "  built with gcc 8.2.1 (GCC) 20190212\n",
      "  configuration: --enable-gpl --enable-version3 --enable-sdl2 --enable-fontconfig --enable-gnutls --enable-iconv --enable-libass --enable-libdav1d --enable-libbluray --enable-libfreetype --enable-libmp3lame --enable-libopencore-amrnb --enable-libopencore-amrwb --enable-libopenjpeg --enable-libopus --enable-libshine --enable-libsnappy --enable-libsoxr --enable-libtheora --enable-libtwolame --enable-libvpx --enable-libwavpack --enable-libwebp --enable-libx264 --enable-libx265 --enable-libxml2 --enable-libzimg --enable-lzma --enable-zlib --enable-gmp --enable-libvidstab --enable-libvorbis --enable-libvo-amrwbenc --enable-libmysofa --enable-libspeex --enable-libxvid --enable-libaom --enable-libmfx --enable-amf --enable-ffnvcodec --enable-cuvid --enable-d3d11va --enable-nvenc --enable-nvdec --enable-dxva2 --enable-avisynth --enable-libopenmpt\n",
      "  libavutil      56. 26.100 / 56. 26.100\n",
      "  libavcodec     58. 48.101 / 58. 48.101\n",
      "  libavformat    58. 26.101 / 58. 26.101\n",
      "  libavdevice    58.  7.100 / 58.  7.100\n",
      "  libavfilter     7. 48.100 /  7. 48.100\n",
      "  libswscale      5.  4.100 /  5.  4.100\n",
      "  libswresample   3.  4.100 /  3.  4.100\n",
      "  libpostproc    55.  4.100 / 55.  4.100\n",
      "Input #0, avi, from '\\\\10.10.47.163\\Data_archive\\qiushou\\miniscope_result\\Results_206552\\20201112_232843_30fps_20200730\\msCam_concat.avi':\n",
      "  Metadata:\n",
      "    encoder         : Lavf58.29.100\n",
      "  Duration: 00:51:40.60, start: 0.000000, bitrate: 17426 kb/s\n",
      "    Stream #0:0: Video: rawvideo, bgr24, 219x165, 17424 kb/s, 20 fps, 20 tbr, 20 tbn, 20 tbc\n",
      "Stream mapping:\n",
      "  Stream #0:0 -> #0:0 (rawvideo (native) -> h264 (libx264))\n",
      "Press [q] to stop, [?] for help\n",
      "[swscaler @ 0000025df9b8bd00] Warning: data is not aligned! This can lead to a speed loss\n",
      "[libx264 @ 0000025df9b1cd80] using cpu capabilities: MMX2 SSE2Fast SSSE3 SSE4.2 AVX FMA3 BMI2 AVX2\n",
      "[libx264 @ 0000025df9b1cd80] profile High 4:4:4 Predictive, level 1.2, 4:4:4, 8-bit\n",
      "[libx264 @ 0000025df9b1cd80] 264 - core 157 r2969 d4099dd - H.264/MPEG-4 AVC codec - Copyleft 2003-2019 - http://www.videolan.org/x264.html - options: cabac=1 ref=3 deblock=1:0:0 analyse=0x3:0x113 me=hex subme=7 psy=1 psy_rd=1.00:0.00 mixed_ref=1 me_range=16 chroma_me=1 trellis=1 8x8dct=1 cqm=0 deadzone=21,11 fast_pskip=1 chroma_qp_offset=4 threads=5 lookahead_threads=1 sliced_threads=0 nr=0 decimate=1 interlaced=0 bluray_compat=0 constrained_intra=0 bframes=3 b_pyramid=2 b_adapt=1 b_bias=0 direct=1 weightb=1 open_gop=0 weightp=2 keyint=250 keyint_min=20 scenecut=40 intra_refresh=0 rc_lookahead=40 rc=crf mbtree=1 crf=23.0 qcomp=0.60 qpmin=0 qpmax=69 qpstep=4 ip_ratio=1.40 aq=1:1.00\n",
      "Output #0, mp4, to '\\\\10.10.47.163\\Data_archive\\qiushou\\miniscope_result\\Results_206552\\20201112_232843_30fps_20200730\\msCam_concat.mp4':\n",
      "  Metadata:\n",
      "    encoder         : Lavf58.26.101\n",
      "    Stream #0:0: Video: h264 (libx264) (avc1 / 0x31637661), yuv444p, 219x165, q=-1--1, 20 fps, 10240 tbn, 20 tbc\n",
      "    Metadata:\n",
      "      encoder         : Lavc58.48.101 libx264\n",
      "    Side data:\n",
      "      cpb: bitrate max/min/avg: 0/0/0 buffer size: 0 vbv_delay: -1\n",
      "frame=  451 fps=0.0 q=28.0 size=       0kB time=00:00:19.95 bitrate=   0.0kbits/s speed=39.1x    \n",
      "frame=  888 fps=864 q=28.0 size=       0kB time=00:00:41.80 bitrate=   0.0kbits/s speed=40.7x    \n",
      "frame= 1324 fps=867 q=28.0 size=       0kB time=00:01:03.60 bitrate=   0.0kbits/s speed=41.6x    \n",
      "frame= 1779 fps=870 q=28.0 size=       0kB time=00:01:26.35 bitrate=   0.0kbits/s speed=42.2x    \n",
      "frame= 2226 fps=870 q=28.0 size=       0kB time=00:01:48.70 bitrate=   0.0kbits/s speed=42.5x    \n",
      "frame= 2677 fps=865 q=28.0 size=       0kB time=00:02:11.25 bitrate=   0.0kbits/s speed=42.4x    \n",
      "frame= 3126 fps=866 q=28.0 size=       0kB time=00:02:33.70 bitrate=   0.0kbits/s speed=42.6x    \n",
      "frame= 3558 fps=865 q=28.0 size=     256kB time=00:02:55.30 bitrate=  12.0kbits/s speed=42.6x    \n",
      "frame= 4019 fps=864 q=28.0 size=     256kB time=00:03:18.35 bitrate=  10.6kbits/s speed=42.7x    \n",
      "frame= 4453 fps=862 q=28.0 size=     256kB time=00:03:40.05 bitrate=   9.5kbits/s speed=42.6x    \n",
      "frame= 4909 fps=859 q=28.0 size=     256kB time=00:04:02.85 bitrate=   8.6kbits/s speed=42.5x    \n",
      "frame= 5386 fps=865 q=28.0 size=     256kB time=00:04:26.70 bitrate=   7.9kbits/s speed=42.8x    \n",
      "frame= 5814 fps=862 q=28.0 size=     256kB time=00:04:48.10 bitrate=   7.3kbits/s speed=42.7x    \n",
      "frame= 6217 fps=856 q=28.0 size=     256kB time=00:05:08.25 bitrate=   6.8kbits/s speed=42.5x    \n",
      "frame= 6682 fps=856 q=28.0 size=     512kB time=00:05:31.50 bitrate=  12.7kbits/s speed=42.5x    \n",
      "frame= 7167 fps=856 q=28.0 size=     512kB time=00:05:55.75 bitrate=  11.8kbits/s speed=42.5x    \n",
      "frame= 7597 fps=856 q=28.0 size=     512kB time=00:06:17.25 bitrate=  11.1kbits/s speed=42.5x    \n",
      "frame= 8101 fps=857 q=28.0 size=     512kB time=00:06:42.45 bitrate=  10.4kbits/s speed=42.6x    \n",
      "frame= 8532 fps=856 q=28.0 size=     512kB time=00:07:04.00 bitrate=   9.9kbits/s speed=42.6x    \n",
      "frame= 9008 fps=860 q=28.0 size=     512kB time=00:07:27.80 bitrate=   9.4kbits/s speed=42.7x    \n",
      "frame= 9438 fps=859 q=28.0 size=     768kB time=00:07:49.30 bitrate=  13.4kbits/s speed=42.7x    \n",
      "frame= 9899 fps=862 q=28.0 size=     768kB time=00:08:12.35 bitrate=  12.8kbits/s speed=42.9x    \n",
      "frame=10372 fps=864 q=28.0 size=     768kB time=00:08:36.00 bitrate=  12.2kbits/s speed=  43x    \n",
      "frame=10816 fps=864 q=28.0 size=     768kB time=00:08:58.20 bitrate=  11.7kbits/s speed=  43x    \n",
      "frame=11259 fps=864 q=28.0 size=     768kB time=00:09:20.35 bitrate=  11.2kbits/s speed=  43x    \n",
      "frame=11719 fps=864 q=28.0 size=     768kB time=00:09:43.35 bitrate=  10.8kbits/s speed=  43x    \n",
      "frame=12168 fps=864 q=28.0 size=     768kB time=00:10:05.80 bitrate=  10.4kbits/s speed=  43x    \n",
      "frame=12623 fps=865 q=28.0 size=     768kB time=00:10:28.55 bitrate=  10.0kbits/s speed=43.1x    \n",
      "frame=13074 fps=864 q=28.0 size=    1024kB time=00:10:51.10 bitrate=  12.9kbits/s speed=  43x    \n",
      "frame=13510 fps=864 q=28.0 size=    1024kB time=00:11:12.90 bitrate=  12.5kbits/s speed=43.1x    \n",
      "frame=13975 fps=865 q=28.0 size=    1024kB time=00:11:36.15 bitrate=  12.1kbits/s speed=43.1x    \n",
      "frame=14411 fps=865 q=28.0 size=    1024kB time=00:11:57.95 bitrate=  11.7kbits/s speed=43.1x    \n",
      "frame=14870 fps=865 q=28.0 size=    1024kB time=00:12:20.90 bitrate=  11.3kbits/s speed=43.1x    \n",
      "frame=15334 fps=866 q=28.0 size=    1024kB time=00:12:44.10 bitrate=  11.0kbits/s speed=43.2x    \n",
      "frame=15737 fps=864 q=28.0 size=    1024kB time=00:13:04.25 bitrate=  10.7kbits/s speed=43.1x    \n",
      "frame=16181 fps=864 q=28.0 size=    1280kB time=00:13:26.45 bitrate=  13.0kbits/s speed=43.1x    \n",
      "frame=16653 fps=864 q=28.0 size=    1280kB time=00:13:50.05 bitrate=  12.6kbits/s speed=43.1x    \n",
      "frame=17140 fps=865 q=28.0 size=    1280kB time=00:14:14.40 bitrate=  12.3kbits/s speed=43.1x    \n",
      "frame=17572 fps=865 q=28.0 size=    1280kB time=00:14:36.00 bitrate=  12.0kbits/s speed=43.1x    \n",
      "frame=18009 fps=864 q=28.0 size=    1280kB time=00:14:57.85 bitrate=  11.7kbits/s speed=43.1x    \n",
      "frame=18489 fps=866 q=28.0 size=    1280kB time=00:15:21.85 bitrate=  11.4kbits/s speed=43.2x    \n",
      "frame=18939 fps=864 q=28.0 size=    1280kB time=00:15:44.35 bitrate=  11.1kbits/s speed=43.1x    \n",
      "frame=19372 fps=863 q=28.0 size=    1280kB time=00:16:06.00 bitrate=  10.9kbits/s speed=  43x    \n",
      "frame=19861 fps=865 q=28.0 size=    1536kB time=00:16:30.45 bitrate=  12.7kbits/s speed=43.1x    \n",
      "frame=20310 fps=865 q=28.0 size=    1536kB time=00:16:52.90 bitrate=  12.4kbits/s speed=43.2x    \n",
      "frame=20772 fps=866 q=28.0 size=    1536kB time=00:17:16.00 bitrate=  12.1kbits/s speed=43.2x    \n",
      "frame=21237 fps=867 q=28.0 size=    1536kB time=00:17:39.25 bitrate=  11.9kbits/s speed=43.2x    \n",
      "frame=21690 fps=866 q=28.0 size=    1536kB time=00:18:01.90 bitrate=  11.6kbits/s speed=43.2x    \n",
      "frame=22156 fps=866 q=28.0 size=    1536kB time=00:18:25.20 bitrate=  11.4kbits/s speed=43.2x    \n",
      "frame=22628 fps=866 q=28.0 size=    1536kB time=00:18:48.80 bitrate=  11.1kbits/s speed=43.2x    \n",
      "frame=23094 fps=866 q=28.0 size=    1792kB time=00:19:12.10 bitrate=  12.7kbits/s speed=43.2x    \n",
      "frame=23542 fps=866 q=28.0 size=    1792kB time=00:19:34.50 bitrate=  12.5kbits/s speed=43.2x    \n",
      "frame=23965 fps=866 q=28.0 size=    1792kB time=00:19:55.65 bitrate=  12.3kbits/s speed=43.2x    \n",
      "frame=24408 fps=866 q=28.0 size=    1792kB time=00:20:17.80 bitrate=  12.1kbits/s speed=43.2x    \n",
      "frame=24876 fps=865 q=28.0 size=    1792kB time=00:20:41.20 bitrate=  11.8kbits/s speed=43.2x    \n",
      "frame=25304 fps=865 q=28.0 size=    1792kB time=00:21:02.60 bitrate=  11.6kbits/s speed=43.2x    \n",
      "frame=25747 fps=865 q=28.0 size=    1792kB time=00:21:24.75 bitrate=  11.4kbits/s speed=43.2x    \n",
      "frame=26210 fps=865 q=28.0 size=    2048kB time=00:21:47.90 bitrate=  12.8kbits/s speed=43.2x    \n",
      "frame=26688 fps=865 q=28.0 size=    2048kB time=00:22:11.80 bitrate=  12.6kbits/s speed=43.2x    \n",
      "frame=27111 fps=864 q=28.0 size=    2048kB time=00:22:32.95 bitrate=  12.4kbits/s speed=43.1x    \n",
      "frame=27543 fps=864 q=28.0 size=    2048kB time=00:22:54.55 bitrate=  12.2kbits/s speed=43.1x    \n",
      "frame=27976 fps=864 q=28.0 size=    2048kB time=00:23:16.20 bitrate=  12.0kbits/s speed=43.1x    \n",
      "frame=28445 fps=865 q=28.0 size=    2048kB time=00:23:39.65 bitrate=  11.8kbits/s speed=43.2x    \n",
      "frame=28912 fps=864 q=28.0 size=    2048kB time=00:24:03.00 bitrate=  11.6kbits/s speed=43.1x    \n",
      "frame=29344 fps=864 q=28.0 size=    2048kB time=00:24:24.60 bitrate=  11.5kbits/s speed=43.1x    \n",
      "frame=29854 fps=866 q=28.0 size=    2304kB time=00:24:50.10 bitrate=  12.7kbits/s speed=43.2x    \n",
      "frame=30315 fps=867 q=28.0 size=    2304kB time=00:25:13.15 bitrate=  12.5kbits/s speed=43.3x    \n",
      "frame=30783 fps=867 q=28.0 size=    2304kB time=00:25:36.55 bitrate=  12.3kbits/s speed=43.3x    \n",
      "frame=31220 fps=867 q=28.0 size=    2304kB time=00:25:58.40 bitrate=  12.1kbits/s speed=43.3x    \n",
      "frame=31668 fps=867 q=28.0 size=    2304kB time=00:26:20.80 bitrate=  11.9kbits/s speed=43.3x    \n",
      "frame=32142 fps=867 q=28.0 size=    2304kB time=00:26:44.50 bitrate=  11.8kbits/s speed=43.3x    \n",
      "frame=32622 fps=867 q=28.0 size=    2304kB time=00:27:08.50 bitrate=  11.6kbits/s speed=43.3x    \n",
      "frame=33093 fps=867 q=28.0 size=    2304kB time=00:27:32.05 bitrate=  11.4kbits/s speed=43.3x    \n",
      "frame=33549 fps=867 q=28.0 size=    2560kB time=00:27:54.85 bitrate=  12.5kbits/s speed=43.3x    \n",
      "frame=33977 fps=867 q=28.0 size=    2560kB time=00:28:16.25 bitrate=  12.4kbits/s speed=43.3x    \n",
      "frame=34427 fps=867 q=28.0 size=    2560kB time=00:28:38.75 bitrate=  12.2kbits/s speed=43.3x    \n",
      "frame=34901 fps=868 q=28.0 size=    2560kB time=00:29:02.45 bitrate=  12.0kbits/s speed=43.3x    \n",
      "frame=35379 fps=869 q=28.0 size=    2560kB time=00:29:26.35 bitrate=  11.9kbits/s speed=43.4x    \n",
      "frame=35782 fps=868 q=28.0 size=    2560kB time=00:29:46.50 bitrate=  11.7kbits/s speed=43.3x    \n",
      "frame=36248 fps=868 q=28.0 size=    2560kB time=00:30:09.80 bitrate=  11.6kbits/s speed=43.3x    \n",
      "frame=36732 fps=868 q=28.0 size=    2560kB time=00:30:34.00 bitrate=  11.4kbits/s speed=43.3x    \n",
      "frame=37231 fps=868 q=28.0 size=    2560kB time=00:30:58.95 bitrate=  11.3kbits/s speed=43.3x    \n",
      "frame=37712 fps=869 q=28.0 size=    2816kB time=00:31:23.00 bitrate=  12.3kbits/s speed=43.4x    \n",
      "frame=38168 fps=868 q=28.0 size=    2816kB time=00:31:45.80 bitrate=  12.1kbits/s speed=43.3x    \n",
      "frame=38638 fps=869 q=28.0 size=    2816kB time=00:32:09.30 bitrate=  12.0kbits/s speed=43.4x    \n",
      "frame=39104 fps=868 q=28.0 size=    2816kB time=00:32:32.60 bitrate=  11.8kbits/s speed=43.3x    \n",
      "frame=39613 fps=869 q=28.0 size=    2816kB time=00:32:58.05 bitrate=  11.7kbits/s speed=43.4x    \n",
      "frame=40074 fps=869 q=28.0 size=    2816kB time=00:33:21.10 bitrate=  11.5kbits/s speed=43.4x    \n",
      "frame=40533 fps=869 q=28.0 size=    2816kB time=00:33:44.05 bitrate=  11.4kbits/s speed=43.4x    \n",
      "frame=40998 fps=870 q=28.0 size=    2816kB time=00:34:07.30 bitrate=  11.3kbits/s speed=43.4x    \n",
      "frame=41430 fps=869 q=28.0 size=    3072kB time=00:34:28.90 bitrate=  12.2kbits/s speed=43.4x    \n",
      "frame=41891 fps=870 q=28.0 size=    3072kB time=00:34:51.95 bitrate=  12.0kbits/s speed=43.4x    \n",
      "frame=42350 fps=870 q=28.0 size=    3072kB time=00:35:14.90 bitrate=  11.9kbits/s speed=43.4x    \n",
      "frame=42780 fps=870 q=28.0 size=    3072kB time=00:35:36.40 bitrate=  11.8kbits/s speed=43.4x    \n",
      "frame=43226 fps=870 q=28.0 size=    3072kB time=00:35:58.70 bitrate=  11.7kbits/s speed=43.4x    \n",
      "frame=43701 fps=870 q=28.0 size=    3072kB time=00:36:22.45 bitrate=  11.5kbits/s speed=43.4x    \n",
      "frame=44162 fps=870 q=28.0 size=    3072kB time=00:36:45.50 bitrate=  11.4kbits/s speed=43.4x    \n",
      "frame=44612 fps=870 q=28.0 size=    3072kB time=00:37:08.00 bitrate=  11.3kbits/s speed=43.5x    \n",
      "frame=45102 fps=870 q=28.0 size=    3072kB time=00:37:32.50 bitrate=  11.2kbits/s speed=43.5x    \n",
      "frame=45548 fps=870 q=28.0 size=    3328kB time=00:37:54.80 bitrate=  12.0kbits/s speed=43.5x    \n",
      "frame=46013 fps=870 q=28.0 size=    3328kB time=00:38:18.05 bitrate=  11.9kbits/s speed=43.5x    \n",
      "frame=46493 fps=870 q=28.0 size=    3328kB time=00:38:42.05 bitrate=  11.7kbits/s speed=43.5x    \n",
      "frame=46919 fps=870 q=28.0 size=    3328kB time=00:39:03.35 bitrate=  11.6kbits/s speed=43.4x    \n",
      "frame=47420 fps=871 q=28.0 size=    3328kB time=00:39:28.40 bitrate=  11.5kbits/s speed=43.5x    \n",
      "frame=47856 fps=870 q=28.0 size=    3328kB time=00:39:50.20 bitrate=  11.4kbits/s speed=43.5x    \n",
      "frame=48348 fps=871 q=28.0 size=    3328kB time=00:40:14.80 bitrate=  11.3kbits/s speed=43.5x    \n",
      "frame=48792 fps=870 q=28.0 size=    3328kB time=00:40:37.00 bitrate=  11.2kbits/s speed=43.5x    \n",
      "frame=49275 fps=871 q=28.0 size=    3584kB time=00:41:01.15 bitrate=  11.9kbits/s speed=43.5x    \n",
      "frame=49762 fps=871 q=28.0 size=    3584kB time=00:41:25.50 bitrate=  11.8kbits/s speed=43.5x    \n",
      "frame=50226 fps=871 q=28.0 size=    3584kB time=00:41:48.70 bitrate=  11.7kbits/s speed=43.5x    \n",
      "frame=50686 fps=872 q=28.0 size=    3584kB time=00:42:11.70 bitrate=  11.6kbits/s speed=43.5x    \n",
      "frame=51141 fps=872 q=28.0 size=    3584kB time=00:42:34.45 bitrate=  11.5kbits/s speed=43.5x    \n",
      "frame=51588 fps=872 q=28.0 size=    3584kB time=00:42:56.80 bitrate=  11.4kbits/s speed=43.5x    \n",
      "frame=52039 fps=872 q=28.0 size=    3584kB time=00:43:19.35 bitrate=  11.3kbits/s speed=43.6x    \n",
      "frame=52488 fps=872 q=28.0 size=    3584kB time=00:43:41.80 bitrate=  11.2kbits/s speed=43.6x    \n",
      "frame=52970 fps=872 q=28.0 size=    3840kB time=00:44:05.90 bitrate=  11.9kbits/s speed=43.6x    \n",
      "frame=53436 fps=872 q=28.0 size=    3840kB time=00:44:29.20 bitrate=  11.8kbits/s speed=43.6x    \n",
      "frame=53912 fps=872 q=28.0 size=    3840kB time=00:44:53.00 bitrate=  11.7kbits/s speed=43.6x    \n",
      "frame=54330 fps=871 q=28.0 size=    3840kB time=00:45:13.90 bitrate=  11.6kbits/s speed=43.5x    \n",
      "frame=54806 fps=872 q=28.0 size=    3840kB time=00:45:37.70 bitrate=  11.5kbits/s speed=43.6x    \n",
      "frame=55250 fps=872 q=28.0 size=    3840kB time=00:45:59.90 bitrate=  11.4kbits/s speed=43.5x    \n",
      "frame=55708 fps=872 q=28.0 size=    3840kB time=00:46:22.80 bitrate=  11.3kbits/s speed=43.5x    \n",
      "frame=56181 fps=872 q=28.0 size=    3840kB time=00:46:46.45 bitrate=  11.2kbits/s speed=43.5x    \n",
      "frame=56672 fps=872 q=28.0 size=    4096kB time=00:47:11.00 bitrate=  11.9kbits/s speed=43.6x    \n",
      "frame=57129 fps=872 q=28.0 size=    4096kB time=00:47:33.85 bitrate=  11.8kbits/s speed=43.6x    \n",
      "frame=57608 fps=872 q=28.0 size=    4096kB time=00:47:57.80 bitrate=  11.7kbits/s speed=43.6x    \n",
      "frame=58111 fps=872 q=28.0 size=    4096kB time=00:48:22.95 bitrate=  11.6kbits/s speed=43.6x    \n",
      "frame=58557 fps=872 q=28.0 size=    4096kB time=00:48:45.25 bitrate=  11.5kbits/s speed=43.6x    \n",
      "frame=59043 fps=873 q=28.0 size=    4096kB time=00:49:09.55 bitrate=  11.4kbits/s speed=43.6x    \n",
      "frame=59515 fps=873 q=28.0 size=    4096kB time=00:49:33.15 bitrate=  11.3kbits/s speed=43.6x    \n",
      "frame=59960 fps=873 q=28.0 size=    4096kB time=00:49:55.40 bitrate=  11.2kbits/s speed=43.6x    \n",
      "frame=60409 fps=873 q=28.0 size=    4096kB time=00:50:17.85 bitrate=  11.1kbits/s speed=43.6x    \n",
      "frame=60861 fps=874 q=28.0 size=    4352kB time=00:50:40.45 bitrate=  11.7kbits/s speed=43.6x    \n",
      "frame=61301 fps=873 q=28.0 size=    4352kB time=00:51:02.45 bitrate=  11.6kbits/s speed=43.6x    \n",
      "frame=61740 fps=873 q=28.0 size=    4352kB time=00:51:24.40 bitrate=  11.6kbits/s speed=43.6x    \n",
      "frame=62012 fps=873 q=-1.0 Lsize=    5174kB time=00:51:40.45 bitrate=  13.7kbits/s speed=43.7x    \n",
      "video:4448kB audio:0kB subtitle:0kB other streams:0kB global headers:0kB muxing overhead: 16.337570%\n",
      "[libx264 @ 0000025df9b1cd80] frame I:250   Avg QP:17.98  size:  1101\n",
      "[libx264 @ 0000025df9b1cd80] frame P:15626 Avg QP:20.67  size:   160\n",
      "[libx264 @ 0000025df9b1cd80] frame B:46136 Avg QP:22.02  size:    39\n",
      "[libx264 @ 0000025df9b1cd80] consecutive B-frames:  0.8%  0.0%  0.0% 99.2%\n",
      "[libx264 @ 0000025df9b1cd80] mb I  I16..4: 18.8% 78.2%  3.0%\n",
      "[libx264 @ 0000025df9b1cd80] mb P  I16..4:  0.0%  0.1%  0.0%  P16..4: 27.2%  3.9%  3.5%  0.0%  0.0%    skip:65.2%\n",
      "[libx264 @ 0000025df9b1cd80] mb B  I16..4:  0.0%  0.0%  0.0%  B16..8: 16.3%  0.0%  0.0%  direct: 0.0%  skip:83.7%  L0:38.9% L1:61.0% BI: 0.2%\n",
      "[libx264 @ 0000025df9b1cd80] 8x8 transform intra:76.8% inter:98.2%\n",
      "[libx264 @ 0000025df9b1cd80] coded y,u,v intra: 59.6% 0.0% 0.0% inter: 1.1% 0.0% 0.0%\n",
      "[libx264 @ 0000025df9b1cd80] i16 v,h,dc,p:  7% 10%  2% 81%\n",
      "[libx264 @ 0000025df9b1cd80] i8 v,h,dc,ddl,ddr,vr,hd,vl,hu: 18% 14%  9%  9% 14% 10% 12%  7%  7%\n",
      "[libx264 @ 0000025df9b1cd80] i4 v,h,dc,ddl,ddr,vr,hd,vl,hu: 39% 14% 17%  3% 10%  3%  9%  3%  2%\n",
      "[libx264 @ 0000025df9b1cd80] Weighted P-Frames: Y:12.3% UV:0.0%\n",
      "[libx264 @ 0000025df9b1cd80] ref P L0: 63.2%  9.9% 19.0%  6.5%  1.4%\n",
      "[libx264 @ 0000025df9b1cd80] ref B L0: 80.3% 15.7%  4.0%\n",
      "[libx264 @ 0000025df9b1cd80] ref B L1: 94.8%  5.2%\n",
      "[libx264 @ 0000025df9b1cd80] kb/s:11.75\n",
      "\n",
      "%s has been transcoded\n",
      "video haven't been tracked\n",
      "\\\\10.10.47.163\\Data_archive\\qiushou\\miniscope_result\\Results_206552\\20201112_233105_30fps_20200731\\msCam_concat.avi is as large as 6.16GB\n"
     ]
    },
    {
     "name": "stdout",
     "output_type": "stream",
     "text": [
      "ffmpeg version N-93532-g772c73e61f Copyright (c) 2000-2019 the FFmpeg developers\n",
      "  built with gcc 8.2.1 (GCC) 20190212\n",
      "  configuration: --enable-gpl --enable-version3 --enable-sdl2 --enable-fontconfig --enable-gnutls --enable-iconv --enable-libass --enable-libdav1d --enable-libbluray --enable-libfreetype --enable-libmp3lame --enable-libopencore-amrnb --enable-libopencore-amrwb --enable-libopenjpeg --enable-libopus --enable-libshine --enable-libsnappy --enable-libsoxr --enable-libtheora --enable-libtwolame --enable-libvpx --enable-libwavpack --enable-libwebp --enable-libx264 --enable-libx265 --enable-libxml2 --enable-libzimg --enable-lzma --enable-zlib --enable-gmp --enable-libvidstab --enable-libvorbis --enable-libvo-amrwbenc --enable-libmysofa --enable-libspeex --enable-libxvid --enable-libaom --enable-libmfx --enable-amf --enable-ffnvcodec --enable-cuvid --enable-d3d11va --enable-nvenc --enable-nvdec --enable-dxva2 --enable-avisynth --enable-libopenmpt\n",
      "  libavutil      56. 26.100 / 56. 26.100\n",
      "  libavcodec     58. 48.101 / 58. 48.101\n",
      "  libavformat    58. 26.101 / 58. 26.101\n",
      "  libavdevice    58.  7.100 / 58.  7.100\n",
      "  libavfilter     7. 48.100 /  7. 48.100\n",
      "  libswscale      5.  4.100 /  5.  4.100\n",
      "  libswresample   3.  4.100 /  3.  4.100\n",
      "  libpostproc    55.  4.100 / 55.  4.100\n",
      "Input #0, avi, from '\\\\10.10.47.163\\Data_archive\\qiushou\\miniscope_result\\Results_206552\\20201112_233105_30fps_20200731\\msCam_concat.avi':\n",
      "  Metadata:\n",
      "    encoder         : Lavf58.29.100\n",
      "  Duration: 00:50:34.00, start: 0.000000, bitrate: 17426 kb/s\n",
      "    Stream #0:0: Video: rawvideo, bgr24, 219x165, 17424 kb/s, 20 fps, 20 tbr, 20 tbn, 20 tbc\n",
      "Stream mapping:\n",
      "  Stream #0:0 -> #0:0 (rawvideo (native) -> h264 (libx264))\n",
      "Press [q] to stop, [?] for help\n",
      "[swscaler @ 000001e470d2bd00] Warning: data is not aligned! This can lead to a speed loss\n",
      "[libx264 @ 000001e470cbcd80] using cpu capabilities: MMX2 SSE2Fast SSSE3 SSE4.2 AVX FMA3 BMI2 AVX2\n",
      "[libx264 @ 000001e470cbcd80] profile High 4:4:4 Predictive, level 1.2, 4:4:4, 8-bit\n",
      "[libx264 @ 000001e470cbcd80] 264 - core 157 r2969 d4099dd - H.264/MPEG-4 AVC codec - Copyleft 2003-2019 - http://www.videolan.org/x264.html - options: cabac=1 ref=3 deblock=1:0:0 analyse=0x3:0x113 me=hex subme=7 psy=1 psy_rd=1.00:0.00 mixed_ref=1 me_range=16 chroma_me=1 trellis=1 8x8dct=1 cqm=0 deadzone=21,11 fast_pskip=1 chroma_qp_offset=4 threads=5 lookahead_threads=1 sliced_threads=0 nr=0 decimate=1 interlaced=0 bluray_compat=0 constrained_intra=0 bframes=3 b_pyramid=2 b_adapt=1 b_bias=0 direct=1 weightb=1 open_gop=0 weightp=2 keyint=250 keyint_min=20 scenecut=40 intra_refresh=0 rc_lookahead=40 rc=crf mbtree=1 crf=23.0 qcomp=0.60 qpmin=0 qpmax=69 qpstep=4 ip_ratio=1.40 aq=1:1.00\n",
      "Output #0, mp4, to '\\\\10.10.47.163\\Data_archive\\qiushou\\miniscope_result\\Results_206552\\20201112_233105_30fps_20200731\\msCam_concat.mp4':\n",
      "  Metadata:\n",
      "    encoder         : Lavf58.26.101\n",
      "    Stream #0:0: Video: h264 (libx264) (avc1 / 0x31637661), yuv444p, 219x165, q=-1--1, 20 fps, 10240 tbn, 20 tbc\n",
      "    Metadata:\n",
      "      encoder         : Lavc58.48.101 libx264\n",
      "    Side data:\n",
      "      cpb: bitrate max/min/avg: 0/0/0 buffer size: 0 vbv_delay: -1\n",
      "frame=  451 fps=0.0 q=28.0 size=       0kB time=00:00:19.95 bitrate=   0.0kbits/s speed=38.7x    \n",
      "frame=  888 fps=861 q=28.0 size=       0kB time=00:00:41.80 bitrate=   0.0kbits/s speed=40.5x    \n",
      "frame= 1324 fps=865 q=28.0 size=       0kB time=00:01:03.60 bitrate=   0.0kbits/s speed=41.5x    \n",
      "frame= 1779 fps=867 q=28.0 size=       0kB time=00:01:26.35 bitrate=   0.0kbits/s speed=42.1x    \n",
      "frame= 2226 fps=869 q=28.0 size=       0kB time=00:01:48.70 bitrate=   0.0kbits/s speed=42.4x    \n",
      "frame= 2677 fps=869 q=28.0 size=       0kB time=00:02:11.25 bitrate=   0.0kbits/s speed=42.6x    \n",
      "frame= 3126 fps=870 q=28.0 size=       0kB time=00:02:33.70 bitrate=   0.0kbits/s speed=42.8x    \n",
      "frame= 3561 fps=870 q=28.0 size=       0kB time=00:02:55.45 bitrate=   0.0kbits/s speed=42.9x    \n",
      "frame= 4019 fps=870 q=28.0 size=     256kB time=00:03:18.35 bitrate=  10.6kbits/s speed=42.9x    \n",
      "frame= 4490 fps=877 q=28.0 size=     256kB time=00:03:41.90 bitrate=   9.5kbits/s speed=43.3x    \n",
      "frame= 4909 fps=868 q=28.0 size=     256kB time=00:04:02.85 bitrate=   8.6kbits/s speed=42.9x    \n",
      "frame= 5368 fps=872 q=28.0 size=     256kB time=00:04:25.80 bitrate=   7.9kbits/s speed=43.2x    \n",
      "frame= 5761 fps=863 q=28.0 size=     256kB time=00:04:45.45 bitrate=   7.3kbits/s speed=42.8x    \n",
      "frame= 6212 fps=864 q=28.0 size=     256kB time=00:05:08.00 bitrate=   6.8kbits/s speed=42.9x    \n",
      "frame= 6682 fps=864 q=28.0 size=     256kB time=00:05:31.50 bitrate=   6.3kbits/s speed=42.9x    \n",
      "frame= 7167 fps=864 q=28.0 size=     256kB time=00:05:55.75 bitrate=   5.9kbits/s speed=42.9x    \n",
      "frame= 7633 fps=868 q=28.0 size=     512kB time=00:06:19.05 bitrate=  11.1kbits/s speed=43.1x    \n",
      "frame= 8101 fps=866 q=28.0 size=     512kB time=00:06:42.45 bitrate=  10.4kbits/s speed=  43x    \n",
      "frame= 8548 fps=867 q=28.0 size=     512kB time=00:07:04.80 bitrate=   9.9kbits/s speed=43.1x    \n",
      "frame= 9037 fps=867 q=28.0 size=     512kB time=00:07:29.25 bitrate=   9.3kbits/s speed=43.1x    \n",
      "frame= 9468 fps=867 q=28.0 size=     512kB time=00:07:50.80 bitrate=   8.9kbits/s speed=43.1x    \n",
      "frame= 9957 fps=872 q=28.0 size=     512kB time=00:08:15.25 bitrate=   8.5kbits/s speed=43.4x    \n",
      "frame=10421 fps=873 q=28.0 size=     512kB time=00:08:38.45 bitrate=   8.1kbits/s speed=43.4x    \n",
      "frame=10874 fps=874 q=28.0 size=     512kB time=00:09:01.10 bitrate=   7.8kbits/s speed=43.5x    \n",
      "frame=11316 fps=874 q=28.0 size=     512kB time=00:09:23.20 bitrate=   7.4kbits/s speed=43.5x    \n",
      "frame=11749 fps=873 q=28.0 size=     768kB time=00:09:44.85 bitrate=  10.8kbits/s speed=43.5x    \n",
      "frame=12203 fps=874 q=28.0 size=     768kB time=00:10:07.55 bitrate=  10.4kbits/s speed=43.5x    \n",
      "frame=12663 fps=873 q=28.0 size=     768kB time=00:10:30.55 bitrate=  10.0kbits/s speed=43.5x    \n",
      "frame=13119 fps=874 q=28.0 size=     768kB time=00:10:53.35 bitrate=   9.6kbits/s speed=43.5x    \n",
      "frame=13557 fps=874 q=28.0 size=     768kB time=00:11:15.25 bitrate=   9.3kbits/s speed=43.5x    \n",
      "frame=14025 fps=873 q=28.0 size=     768kB time=00:11:38.65 bitrate=   9.0kbits/s speed=43.5x    \n",
      "frame=14494 fps=874 q=28.0 size=     768kB time=00:12:02.10 bitrate=   8.7kbits/s speed=43.6x    \n",
      "frame=14925 fps=872 q=28.0 size=     768kB time=00:12:23.65 bitrate=   8.5kbits/s speed=43.5x    \n",
      "frame=15409 fps=873 q=28.0 size=    1024kB time=00:12:47.85 bitrate=  10.9kbits/s speed=43.5x    \n",
      "frame=15851 fps=873 q=28.0 size=    1024kB time=00:13:09.95 bitrate=  10.6kbits/s speed=43.5x    \n",
      "frame=16310 fps=873 q=28.0 size=    1024kB time=00:13:32.90 bitrate=  10.3kbits/s speed=43.5x    \n",
      "frame=16787 fps=873 q=28.0 size=    1024kB time=00:13:56.75 bitrate=  10.0kbits/s speed=43.5x    \n",
      "frame=17265 fps=875 q=28.0 size=    1024kB time=00:14:20.65 bitrate=   9.7kbits/s speed=43.6x    \n",
      "frame=17711 fps=873 q=28.0 size=    1024kB time=00:14:42.95 bitrate=   9.5kbits/s speed=43.5x    \n",
      "frame=18144 fps=873 q=28.0 size=    1024kB time=00:15:04.60 bitrate=   9.3kbits/s speed=43.5x    \n",
      "frame=18647 fps=873 q=28.0 size=    1024kB time=00:15:29.75 bitrate=   9.0kbits/s speed=43.5x    \n",
      "frame=19080 fps=873 q=28.0 size=    1280kB time=00:15:51.40 bitrate=  11.0kbits/s speed=43.5x    \n",
      "frame=19578 fps=875 q=28.0 size=    1280kB time=00:16:16.30 bitrate=  10.7kbits/s speed=43.6x    \n",
      "frame=20008 fps=875 q=28.0 size=    1280kB time=00:16:37.80 bitrate=  10.5kbits/s speed=43.6x    \n",
      "frame=20452 fps=875 q=28.0 size=    1280kB time=00:17:00.00 bitrate=  10.3kbits/s speed=43.6x    \n",
      "frame=20911 fps=875 q=28.0 size=    1280kB time=00:17:22.95 bitrate=  10.1kbits/s speed=43.7x    \n",
      "frame=21348 fps=875 q=28.0 size=    1280kB time=00:17:44.80 bitrate=   9.8kbits/s speed=43.7x    \n",
      "frame=21807 fps=876 q=28.0 size=    1280kB time=00:18:07.75 bitrate=   9.6kbits/s speed=43.7x    \n",
      "frame=22254 fps=875 q=28.0 size=    1280kB time=00:18:30.10 bitrate=   9.4kbits/s speed=43.7x    \n",
      "frame=22693 fps=875 q=28.0 size=    1536kB time=00:18:52.05 bitrate=  11.1kbits/s speed=43.7x    \n",
      "frame=23164 fps=876 q=28.0 size=    1536kB time=00:19:15.60 bitrate=  10.9kbits/s speed=43.7x    \n",
      "frame=23620 fps=875 q=28.0 size=    1536kB time=00:19:38.40 bitrate=  10.7kbits/s speed=43.7x    \n",
      "frame=24104 fps=876 q=28.0 size=    1536kB time=00:20:02.60 bitrate=  10.5kbits/s speed=43.7x    \n",
      "frame=24556 fps=876 q=28.0 size=    1536kB time=00:20:25.20 bitrate=  10.3kbits/s speed=43.7x    \n",
      "frame=24972 fps=875 q=28.0 size=    1536kB time=00:20:46.00 bitrate=  10.1kbits/s speed=43.6x    \n",
      "frame=25467 fps=875 q=28.0 size=    1536kB time=00:21:10.75 bitrate=   9.9kbits/s speed=43.7x    \n",
      "frame=25919 fps=875 q=28.0 size=    1536kB time=00:21:33.35 bitrate=   9.7kbits/s speed=43.7x    \n",
      "frame=26389 fps=875 q=28.0 size=    1536kB time=00:21:56.85 bitrate=   9.6kbits/s speed=43.7x    \n",
      "frame=26874 fps=875 q=28.0 size=    1792kB time=00:22:21.10 bitrate=  10.9kbits/s speed=43.7x    \n",
      "frame=27304 fps=875 q=28.0 size=    1792kB time=00:22:42.60 bitrate=  10.8kbits/s speed=43.6x    \n",
      "frame=27735 fps=874 q=28.0 size=    1792kB time=00:23:04.15 bitrate=  10.6kbits/s speed=43.6x    \n",
      "frame=28240 fps=874 q=28.0 size=    1792kB time=00:23:29.40 bitrate=  10.4kbits/s speed=43.6x    \n",
      "frame=28671 fps=874 q=28.0 size=    1792kB time=00:23:50.95 bitrate=  10.3kbits/s speed=43.6x    \n",
      "frame=29125 fps=874 q=28.0 size=    1792kB time=00:24:13.65 bitrate=  10.1kbits/s speed=43.6x    \n",
      "frame=29535 fps=873 q=28.0 size=    1792kB time=00:24:34.15 bitrate=  10.0kbits/s speed=43.6x    \n",
      "frame=30040 fps=875 q=28.0 size=    1792kB time=00:24:59.40 bitrate=   9.8kbits/s speed=43.7x    \n",
      "frame=30498 fps=875 q=28.0 size=    2048kB time=00:25:22.30 bitrate=  11.0kbits/s speed=43.7x    \n",
      "frame=30953 fps=876 q=28.0 size=    2048kB time=00:25:45.05 bitrate=  10.9kbits/s speed=43.7x    \n",
      "frame=31405 fps=876 q=28.0 size=    2048kB time=00:26:07.65 bitrate=  10.7kbits/s speed=43.7x    \n",
      "frame=31836 fps=876 q=28.0 size=    2048kB time=00:26:29.20 bitrate=  10.6kbits/s speed=43.7x    \n",
      "frame=32287 fps=875 q=28.0 size=    2048kB time=00:26:51.75 bitrate=  10.4kbits/s speed=43.7x    \n",
      "frame=32736 fps=875 q=28.0 size=    2048kB time=00:27:14.20 bitrate=  10.3kbits/s speed=43.7x    \n",
      "frame=33181 fps=875 q=28.0 size=    2048kB time=00:27:36.45 bitrate=  10.1kbits/s speed=43.7x    \n",
      "frame=33630 fps=875 q=28.0 size=    2048kB time=00:27:58.90 bitrate=  10.0kbits/s speed=43.7x    \n",
      "frame=34064 fps=874 q=28.0 size=    2048kB time=00:28:20.60 bitrate=   9.9kbits/s speed=43.7x    \n",
      "frame=34520 fps=875 q=28.0 size=    2304kB time=00:28:43.40 bitrate=  11.0kbits/s speed=43.7x    \n",
      "frame=34999 fps=875 q=28.0 size=    2304kB time=00:29:07.35 bitrate=  10.8kbits/s speed=43.7x    \n",
      "frame=35435 fps=875 q=28.0 size=    2304kB time=00:29:29.15 bitrate=  10.7kbits/s speed=43.7x    \n",
      "frame=35890 fps=875 q=28.0 size=    2304kB time=00:29:51.90 bitrate=  10.5kbits/s speed=43.7x    \n",
      "frame=36362 fps=875 q=28.0 size=    2304kB time=00:30:15.50 bitrate=  10.4kbits/s speed=43.7x    \n",
      "frame=36849 fps=875 q=28.0 size=    2304kB time=00:30:39.85 bitrate=  10.3kbits/s speed=43.7x    \n",
      "frame=37293 fps=875 q=28.0 size=    2304kB time=00:31:02.05 bitrate=  10.1kbits/s speed=43.7x    \n",
      "frame=37785 fps=875 q=28.0 size=    2304kB time=00:31:26.65 bitrate=  10.0kbits/s speed=43.7x    \n",
      "frame=38289 fps=875 q=28.0 size=    2304kB time=00:31:51.85 bitrate=   9.9kbits/s speed=43.7x    \n",
      "frame=38720 fps=875 q=28.0 size=    2560kB time=00:32:13.40 bitrate=  10.8kbits/s speed=43.7x    \n",
      "frame=39153 fps=875 q=28.0 size=    2560kB time=00:32:35.05 bitrate=  10.7kbits/s speed=43.7x    \n",
      "frame=39660 fps=876 q=28.0 size=    2560kB time=00:33:00.40 bitrate=  10.6kbits/s speed=43.8x    \n",
      "frame=40132 fps=876 q=28.0 size=    2560kB time=00:33:24.00 bitrate=  10.5kbits/s speed=43.8x    \n",
      "frame=40608 fps=876 q=28.0 size=    2560kB time=00:33:47.80 bitrate=  10.3kbits/s speed=43.8x    \n",
      "frame=41057 fps=877 q=28.0 size=    2560kB time=00:34:10.25 bitrate=  10.2kbits/s speed=43.8x    \n",
      "frame=41509 fps=877 q=28.0 size=    2560kB time=00:34:32.85 bitrate=  10.1kbits/s speed=43.8x    \n",
      "frame=41980 fps=877 q=28.0 size=    2560kB time=00:34:56.40 bitrate=  10.0kbits/s speed=43.8x    \n",
      "frame=42456 fps=877 q=28.0 size=    2816kB time=00:35:20.20 bitrate=  10.9kbits/s speed=43.8x    \n",
      "frame=42924 fps=877 q=25.0 size=    2816kB time=00:35:43.60 bitrate=  10.8kbits/s speed=43.8x    \n",
      "frame=43376 fps=877 q=28.0 size=    2816kB time=00:36:06.20 bitrate=  10.6kbits/s speed=43.8x    \n",
      "frame=43856 fps=877 q=28.0 size=    2816kB time=00:36:30.20 bitrate=  10.5kbits/s speed=43.8x    \n",
      "frame=44306 fps=877 q=28.0 size=    2816kB time=00:36:52.70 bitrate=  10.4kbits/s speed=43.8x    \n",
      "frame=44780 fps=878 q=28.0 size=    2816kB time=00:37:16.40 bitrate=  10.3kbits/s speed=43.8x    \n",
      "frame=45275 fps=878 q=28.0 size=    2816kB time=00:37:41.15 bitrate=  10.2kbits/s speed=43.8x    \n",
      "frame=45726 fps=878 q=28.0 size=    2816kB time=00:38:03.70 bitrate=  10.1kbits/s speed=43.8x    \n",
      "frame=46196 fps=878 q=28.0 size=    2816kB time=00:38:27.20 bitrate=  10.0kbits/s speed=43.8x    \n",
      "frame=46681 fps=878 q=28.0 size=    3072kB time=00:38:51.45 bitrate=  10.8kbits/s speed=43.8x    \n",
      "frame=47119 fps=877 q=28.0 size=    3072kB time=00:39:13.35 bitrate=  10.7kbits/s speed=43.8x    \n",
      "frame=47615 fps=878 q=28.0 size=    3072kB time=00:39:38.15 bitrate=  10.6kbits/s speed=43.8x    \n",
      "frame=48083 fps=878 q=28.0 size=    3072kB time=00:40:01.55 bitrate=  10.5kbits/s speed=43.9x    \n",
      "frame=48551 fps=878 q=28.0 size=    3072kB time=00:40:24.95 bitrate=  10.4kbits/s speed=43.9x    \n",
      "frame=49055 fps=878 q=28.0 size=    3072kB time=00:40:50.15 bitrate=  10.3kbits/s speed=43.9x    \n",
      "frame=49567 fps=879 q=28.0 size=    3072kB time=00:41:15.75 bitrate=  10.2kbits/s speed=43.9x    \n",
      "frame=50028 fps=880 q=28.0 size=    3072kB time=00:41:38.80 bitrate=  10.1kbits/s speed=43.9x    \n",
      "frame=50496 fps=880 q=28.0 size=    3072kB time=00:42:02.20 bitrate=  10.0kbits/s speed=43.9x    \n",
      "frame=50957 fps=880 q=28.0 size=    3072kB time=00:42:25.25 bitrate=   9.9kbits/s speed=43.9x    \n",
      "frame=51418 fps=880 q=28.0 size=    3328kB time=00:42:48.30 bitrate=  10.6kbits/s speed=43.9x    \n",
      "frame=51896 fps=880 q=28.0 size=    3328kB time=00:43:12.20 bitrate=  10.5kbits/s speed=43.9x    \n",
      "frame=52341 fps=880 q=28.0 size=    3328kB time=00:43:34.45 bitrate=  10.4kbits/s speed=43.9x    \n",
      "frame=52806 fps=880 q=28.0 size=    3328kB time=00:43:57.70 bitrate=  10.3kbits/s speed=43.9x    \n",
      "frame=53262 fps=880 q=28.0 size=    3328kB time=00:44:20.50 bitrate=  10.2kbits/s speed=43.9x    \n",
      "frame=53746 fps=880 q=28.0 size=    3328kB time=00:44:44.70 bitrate=  10.2kbits/s speed=43.9x    \n",
      "frame=54198 fps=880 q=28.0 size=    3328kB time=00:45:07.30 bitrate=  10.1kbits/s speed=43.9x    \n",
      "frame=54674 fps=880 q=25.0 size=    3328kB time=00:45:31.10 bitrate=  10.0kbits/s speed=  44x    \n",
      "frame=55172 fps=880 q=28.0 size=    3328kB time=00:45:56.00 bitrate=   9.9kbits/s speed=  44x    \n",
      "frame=55627 fps=879 q=28.0 size=    3584kB time=00:46:18.75 bitrate=  10.6kbits/s speed=43.9x    \n",
      "frame=56099 fps=879 q=28.0 size=    3584kB time=00:46:42.35 bitrate=  10.5kbits/s speed=43.9x    \n",
      "frame=56586 fps=879 q=28.0 size=    3584kB time=00:47:06.70 bitrate=  10.4kbits/s speed=43.9x    \n",
      "frame=57017 fps=879 q=28.0 size=    3584kB time=00:47:28.25 bitrate=  10.3kbits/s speed=43.9x    \n",
      "frame=57522 fps=879 q=28.0 size=    3584kB time=00:47:53.50 bitrate=  10.2kbits/s speed=43.9x    \n",
      "frame=58026 fps=879 q=28.0 size=    3584kB time=00:48:18.70 bitrate=  10.1kbits/s speed=43.9x    \n",
      "frame=58527 fps=880 q=28.0 size=    3584kB time=00:48:43.75 bitrate=  10.0kbits/s speed=  44x    \n",
      "frame=58962 fps=879 q=28.0 size=    3584kB time=00:49:05.50 bitrate=  10.0kbits/s speed=43.9x    \n",
      "frame=59478 fps=880 q=28.0 size=    3584kB time=00:49:31.30 bitrate=   9.9kbits/s speed=  44x    \n",
      "frame=59951 fps=881 q=28.0 size=    3584kB time=00:49:54.95 bitrate=   9.8kbits/s speed=  44x    \n",
      "frame=60381 fps=880 q=28.0 size=    3840kB time=00:50:16.45 bitrate=  10.4kbits/s speed=  44x    \n",
      "frame=60680 fps=880 q=-1.0 Lsize=    4585kB time=00:50:33.85 bitrate=  12.4kbits/s speed=  44x    \n",
      "video:3874kB audio:0kB subtitle:0kB other streams:0kB global headers:0kB muxing overhead: 18.351143%\n",
      "[libx264 @ 000001e470cbcd80] frame I:246   Avg QP:17.59  size:  1034\n",
      "[libx264 @ 000001e470cbcd80] frame P:15291 Avg QP:20.38  size:   137\n",
      "[libx264 @ 000001e470cbcd80] frame B:45143 Avg QP:21.92  size:    36\n",
      "[libx264 @ 000001e470cbcd80] consecutive B-frames:  0.8%  0.0%  0.0% 99.2%\n",
      "[libx264 @ 000001e470cbcd80] mb I  I16..4: 18.8% 77.7%  3.5%\n",
      "[libx264 @ 000001e470cbcd80] mb P  I16..4:  0.0%  0.1%  0.0%  P16..4: 24.0%  3.3%  3.0%  0.0%  0.0%    skip:69.6%\n",
      "[libx264 @ 000001e470cbcd80] mb B  I16..4:  0.0%  0.0%  0.0%  B16..8: 14.5%  0.0%  0.0%  direct: 0.0%  skip:85.5%  L0:38.7% L1:61.2% BI: 0.1%\n",
      "[libx264 @ 000001e470cbcd80] 8x8 transform intra:76.3% inter:98.4%\n",
      "[libx264 @ 000001e470cbcd80] coded y,u,v intra: 58.0% 0.0% 0.0% inter: 0.9% 0.0% 0.0%\n",
      "[libx264 @ 000001e470cbcd80] i16 v,h,dc,p:  5% 13%  3% 79%\n",
      "[libx264 @ 000001e470cbcd80] i8 v,h,dc,ddl,ddr,vr,hd,vl,hu: 18% 15% 12%  8% 13%  9% 11%  8%  6%\n",
      "[libx264 @ 000001e470cbcd80] i4 v,h,dc,ddl,ddr,vr,hd,vl,hu: 38% 16% 19%  3% 10%  4%  6%  2%  2%\n",
      "[libx264 @ 000001e470cbcd80] Weighted P-Frames: Y:6.5% UV:0.0%\n",
      "[libx264 @ 000001e470cbcd80] ref P L0: 66.3%  9.2% 17.6%  6.0%  0.9%\n",
      "[libx264 @ 000001e470cbcd80] ref B L0: 80.3% 15.7%  4.1%\n",
      "[libx264 @ 000001e470cbcd80] ref B L1: 94.8%  5.2%\n",
      "[libx264 @ 000001e470cbcd80] kb/s:10.46\n",
      "\n",
      "%s has been transcoded\n",
      "video haven't been tracked\n",
      "\\\\10.10.47.163\\Data_archive\\qiushou\\miniscope_result\\Results_206552\\20201112_233301_30fps_20200801\\msCam_concat.avi is as large as 5.04GB\n"
     ]
    },
    {
     "name": "stdout",
     "output_type": "stream",
     "text": [
      "ffmpeg version N-93532-g772c73e61f Copyright (c) 2000-2019 the FFmpeg developers\n",
      "  built with gcc 8.2.1 (GCC) 20190212\n",
      "  configuration: --enable-gpl --enable-version3 --enable-sdl2 --enable-fontconfig --enable-gnutls --enable-iconv --enable-libass --enable-libdav1d --enable-libbluray --enable-libfreetype --enable-libmp3lame --enable-libopencore-amrnb --enable-libopencore-amrwb --enable-libopenjpeg --enable-libopus --enable-libshine --enable-libsnappy --enable-libsoxr --enable-libtheora --enable-libtwolame --enable-libvpx --enable-libwavpack --enable-libwebp --enable-libx264 --enable-libx265 --enable-libxml2 --enable-libzimg --enable-lzma --enable-zlib --enable-gmp --enable-libvidstab --enable-libvorbis --enable-libvo-amrwbenc --enable-libmysofa --enable-libspeex --enable-libxvid --enable-libaom --enable-libmfx --enable-amf --enable-ffnvcodec --enable-cuvid --enable-d3d11va --enable-nvenc --enable-nvdec --enable-dxva2 --enable-avisynth --enable-libopenmpt\n",
      "  libavutil      56. 26.100 / 56. 26.100\n",
      "  libavcodec     58. 48.101 / 58. 48.101\n",
      "  libavformat    58. 26.101 / 58. 26.101\n",
      "  libavdevice    58.  7.100 / 58.  7.100\n",
      "  libavfilter     7. 48.100 /  7. 48.100\n",
      "  libswscale      5.  4.100 /  5.  4.100\n",
      "  libswresample   3.  4.100 /  3.  4.100\n",
      "  libpostproc    55.  4.100 / 55.  4.100\n",
      "Input #0, avi, from '\\\\10.10.47.163\\Data_archive\\qiushou\\miniscope_result\\Results_206552\\20201112_233301_30fps_20200801\\msCam_concat.avi':\n",
      "  Metadata:\n",
      "    encoder         : Lavf58.29.100\n",
      "  Duration: 00:41:25.60, start: 0.000000, bitrate: 17427 kb/s\n",
      "    Stream #0:0: Video: rawvideo, bgr24, 219x165, 17424 kb/s, 20 fps, 20 tbr, 20 tbn, 20 tbc\n",
      "Stream mapping:\n",
      "  Stream #0:0 -> #0:0 (rawvideo (native) -> h264 (libx264))\n",
      "Press [q] to stop, [?] for help\n",
      "[swscaler @ 000001a993a0bd00] Warning: data is not aligned! This can lead to a speed loss\n",
      "[libx264 @ 000001a99399cd80] using cpu capabilities: MMX2 SSE2Fast SSSE3 SSE4.2 AVX FMA3 BMI2 AVX2\n",
      "[libx264 @ 000001a99399cd80] profile High 4:4:4 Predictive, level 1.2, 4:4:4, 8-bit\n",
      "[libx264 @ 000001a99399cd80] 264 - core 157 r2969 d4099dd - H.264/MPEG-4 AVC codec - Copyleft 2003-2019 - http://www.videolan.org/x264.html - options: cabac=1 ref=3 deblock=1:0:0 analyse=0x3:0x113 me=hex subme=7 psy=1 psy_rd=1.00:0.00 mixed_ref=1 me_range=16 chroma_me=1 trellis=1 8x8dct=1 cqm=0 deadzone=21,11 fast_pskip=1 chroma_qp_offset=4 threads=5 lookahead_threads=1 sliced_threads=0 nr=0 decimate=1 interlaced=0 bluray_compat=0 constrained_intra=0 bframes=3 b_pyramid=2 b_adapt=1 b_bias=0 direct=1 weightb=1 open_gop=0 weightp=2 keyint=250 keyint_min=20 scenecut=40 intra_refresh=0 rc_lookahead=40 rc=crf mbtree=1 crf=23.0 qcomp=0.60 qpmin=0 qpmax=69 qpstep=4 ip_ratio=1.40 aq=1:1.00\n",
      "Output #0, mp4, to '\\\\10.10.47.163\\Data_archive\\qiushou\\miniscope_result\\Results_206552\\20201112_233301_30fps_20200801\\msCam_concat.mp4':\n",
      "  Metadata:\n",
      "    encoder         : Lavf58.26.101\n",
      "    Stream #0:0: Video: h264 (libx264) (avc1 / 0x31637661), yuv444p, 219x165, q=-1--1, 20 fps, 10240 tbn, 20 tbc\n",
      "    Metadata:\n",
      "      encoder         : Lavc58.48.101 libx264\n",
      "    Side data:\n",
      "      cpb: bitrate max/min/avg: 0/0/0 buffer size: 0 vbv_delay: -1\n",
      "frame=  453 fps=0.0 q=28.0 size=       0kB time=00:00:20.05 bitrate=   0.0kbits/s speed=  39x    \n",
      "frame=  864 fps=839 q=28.0 size=       0kB time=00:00:40.60 bitrate=   0.0kbits/s speed=39.4x    \n",
      "frame= 1298 fps=847 q=28.0 size=       0kB time=00:01:02.30 bitrate=   0.0kbits/s speed=40.7x    \n",
      "frame= 1773 fps=866 q=28.0 size=       0kB time=00:01:26.05 bitrate=   0.0kbits/s speed=  42x    \n",
      "frame= 2211 fps=863 q=28.0 size=       0kB time=00:01:47.95 bitrate=   0.0kbits/s speed=42.1x    \n",
      "frame= 2634 fps=859 q=28.0 size=       0kB time=00:02:09.10 bitrate=   0.0kbits/s speed=42.1x    \n",
      "frame= 3092 fps=863 q=28.0 size=       0kB time=00:02:32.00 bitrate=   0.0kbits/s speed=42.4x    \n",
      "frame= 3558 fps=862 q=28.0 size=       0kB time=00:02:55.30 bitrate=   0.0kbits/s speed=42.5x    \n",
      "frame= 4019 fps=864 q=28.0 size=     256kB time=00:03:18.35 bitrate=  10.6kbits/s speed=42.7x    \n",
      "frame= 4454 fps=865 q=28.0 size=     256kB time=00:03:40.10 bitrate=   9.5kbits/s speed=42.7x    \n",
      "frame= 4909 fps=868 q=28.0 size=     256kB time=00:04:02.85 bitrate=   8.6kbits/s speed=  43x    \n",
      "frame= 5388 fps=868 q=28.0 size=     256kB time=00:04:26.80 bitrate=   7.9kbits/s speed=  43x    \n",
      "frame= 5824 fps=867 q=28.0 size=     256kB time=00:04:48.60 bitrate=   7.3kbits/s speed=42.9x    \n",
      "frame= 6278 fps=867 q=28.0 size=     256kB time=00:05:11.30 bitrate=   6.7kbits/s speed=  43x    \n",
      "frame= 6750 fps=866 q=28.0 size=     256kB time=00:05:34.90 bitrate=   6.3kbits/s speed=  43x    \n",
      "frame= 7237 fps=868 q=28.0 size=     256kB time=00:05:59.25 bitrate=   5.8kbits/s speed=43.1x    \n",
      "frame= 7697 fps=869 q=28.0 size=     256kB time=00:06:22.25 bitrate=   5.5kbits/s speed=43.2x    \n",
      "frame= 8172 fps=868 q=28.0 size=     512kB time=00:06:46.00 bitrate=  10.3kbits/s speed=43.1x    \n",
      "frame= 8654 fps=873 q=28.0 size=     512kB time=00:07:10.10 bitrate=   9.8kbits/s speed=43.4x    \n",
      "frame= 9108 fps=868 q=28.0 size=     512kB time=00:07:32.80 bitrate=   9.3kbits/s speed=43.1x    \n",
      "frame= 9541 fps=866 q=28.0 size=     512kB time=00:07:54.45 bitrate=   8.8kbits/s speed=43.1x    \n",
      "frame=10051 fps=872 q=28.0 size=     512kB time=00:08:19.95 bitrate=   8.4kbits/s speed=43.4x    \n",
      "frame=10518 fps=873 q=28.0 size=     512kB time=00:08:43.30 bitrate=   8.0kbits/s speed=43.5x    \n",
      "frame=10966 fps=873 q=28.0 size=     512kB time=00:09:05.70 bitrate=   7.7kbits/s speed=43.5x    \n",
      "frame=11443 fps=874 q=28.0 size=     512kB time=00:09:29.55 bitrate=   7.4kbits/s speed=43.5x    \n",
      "frame=11895 fps=873 q=28.0 size=     768kB time=00:09:52.15 bitrate=  10.6kbits/s speed=43.5x    \n",
      "frame=12365 fps=876 q=28.0 size=     768kB time=00:10:15.65 bitrate=  10.2kbits/s speed=43.6x    \n",
      "frame=12796 fps=874 q=25.0 size=     768kB time=00:10:37.20 bitrate=   9.9kbits/s speed=43.5x    \n",
      "frame=13262 fps=874 q=28.0 size=     768kB time=00:11:00.50 bitrate=   9.5kbits/s speed=43.5x    \n",
      "frame=13710 fps=874 q=28.0 size=     768kB time=00:11:22.90 bitrate=   9.2kbits/s speed=43.5x    \n",
      "frame=14187 fps=874 q=28.0 size=     768kB time=00:11:46.75 bitrate=   8.9kbits/s speed=43.5x    \n",
      "frame=14634 fps=874 q=28.0 size=     768kB time=00:12:09.10 bitrate=   8.6kbits/s speed=43.5x    \n",
      "frame=15105 fps=873 q=28.0 size=     768kB time=00:12:32.65 bitrate=   8.4kbits/s speed=43.5x    \n",
      "frame=15593 fps=876 q=28.0 size=    1024kB time=00:12:57.05 bitrate=  10.8kbits/s speed=43.6x    \n",
      "frame=16042 fps=875 q=28.0 size=    1024kB time=00:13:19.50 bitrate=  10.5kbits/s speed=43.6x    \n",
      "frame=16445 fps=873 q=28.0 size=    1024kB time=00:13:39.65 bitrate=  10.2kbits/s speed=43.5x    \n",
      "frame=16925 fps=873 q=28.0 size=    1024kB time=00:14:03.65 bitrate=   9.9kbits/s speed=43.5x    \n",
      "frame=17355 fps=873 q=28.0 size=    1024kB time=00:14:25.15 bitrate=   9.7kbits/s speed=43.5x    \n",
      "frame=17856 fps=873 q=28.0 size=    1024kB time=00:14:50.20 bitrate=   9.4kbits/s speed=43.5x    \n",
      "frame=18360 fps=873 q=28.0 size=    1024kB time=00:15:15.40 bitrate=   9.2kbits/s speed=43.5x    \n",
      "frame=18864 fps=873 q=28.0 size=    1024kB time=00:15:40.60 bitrate=   8.9kbits/s speed=43.5x    \n",
      "frame=19367 fps=873 q=28.0 size=    1280kB time=00:16:05.75 bitrate=  10.9kbits/s speed=43.6x    \n",
      "frame=19843 fps=875 q=28.0 size=    1280kB time=00:16:29.55 bitrate=  10.6kbits/s speed=43.6x    \n",
      "frame=20303 fps=875 q=28.0 size=    1280kB time=00:16:52.55 bitrate=  10.4kbits/s speed=43.6x    \n",
      "frame=20772 fps=875 q=28.0 size=    1280kB time=00:17:16.00 bitrate=  10.1kbits/s speed=43.7x    \n",
      "frame=21249 fps=876 q=28.0 size=    1280kB time=00:17:39.85 bitrate=   9.9kbits/s speed=43.7x    \n",
      "frame=21701 fps=876 q=28.0 size=    1280kB time=00:18:02.45 bitrate=   9.7kbits/s speed=43.7x    \n",
      "frame=22172 fps=876 q=28.0 size=    1280kB time=00:18:26.00 bitrate=   9.5kbits/s speed=43.7x    \n",
      "frame=22648 fps=876 q=28.0 size=    1280kB time=00:18:49.80 bitrate=   9.3kbits/s speed=43.7x    \n",
      "frame=23116 fps=876 q=28.0 size=    1536kB time=00:19:13.20 bitrate=  10.9kbits/s speed=43.7x    \n",
      "frame=23568 fps=876 q=28.0 size=    1536kB time=00:19:35.80 bitrate=  10.7kbits/s speed=43.7x    \n",
      "frame=23994 fps=875 q=28.0 size=    1536kB time=00:19:57.10 bitrate=  10.5kbits/s speed=43.7x    \n",
      "frame=24441 fps=875 q=28.0 size=    1536kB time=00:20:19.45 bitrate=  10.3kbits/s speed=43.6x    \n",
      "frame=24911 fps=875 q=28.0 size=    1536kB time=00:20:42.95 bitrate=  10.1kbits/s speed=43.7x    \n",
      "frame=25403 fps=875 q=28.0 size=    1536kB time=00:21:07.55 bitrate=   9.9kbits/s speed=43.7x    \n",
      "frame=25854 fps=875 q=28.0 size=    1536kB time=00:21:30.10 bitrate=   9.8kbits/s speed=43.7x    \n",
      "frame=26320 fps=875 q=28.0 size=    1536kB time=00:21:53.40 bitrate=   9.6kbits/s speed=43.7x    \n",
      "frame=26804 fps=875 q=28.0 size=    1792kB time=00:22:17.60 bitrate=  11.0kbits/s speed=43.7x    \n",
      "frame=27231 fps=874 q=28.0 size=    1792kB time=00:22:38.95 bitrate=  10.8kbits/s speed=43.6x    \n",
      "frame=27677 fps=874 q=28.0 size=    1792kB time=00:23:01.25 bitrate=  10.6kbits/s speed=43.6x    \n",
      "frame=28168 fps=874 q=28.0 size=    1792kB time=00:23:25.80 bitrate=  10.4kbits/s speed=43.6x    \n",
      "frame=28671 fps=874 q=28.0 size=    1792kB time=00:23:50.95 bitrate=  10.3kbits/s speed=43.6x    \n",
      "frame=29165 fps=876 q=28.0 size=    1792kB time=00:24:15.65 bitrate=  10.1kbits/s speed=43.7x    \n",
      "frame=29628 fps=876 q=28.0 size=    1792kB time=00:24:38.80 bitrate=   9.9kbits/s speed=43.7x    \n",
      "frame=30095 fps=877 q=28.0 size=    1792kB time=00:25:02.15 bitrate=   9.8kbits/s speed=43.7x    \n",
      "frame=30548 fps=877 q=28.0 size=    2048kB time=00:25:24.80 bitrate=  11.0kbits/s speed=43.8x    \n",
      "frame=30995 fps=877 q=28.0 size=    2048kB time=00:25:47.15 bitrate=  10.8kbits/s speed=43.8x    \n",
      "frame=31425 fps=876 q=28.0 size=    2048kB time=00:26:08.65 bitrate=  10.7kbits/s speed=43.7x    \n",
      "frame=31818 fps=874 q=28.0 size=    2048kB time=00:26:28.30 bitrate=  10.6kbits/s speed=43.7x    \n",
      "frame=32287 fps=874 q=28.0 size=    2048kB time=00:26:51.75 bitrate=  10.4kbits/s speed=43.6x    \n",
      "frame=32736 fps=875 q=28.0 size=    2048kB time=00:27:14.20 bitrate=  10.3kbits/s speed=43.7x    \n",
      "frame=33204 fps=875 q=28.0 size=    2048kB time=00:27:37.60 bitrate=  10.1kbits/s speed=43.7x    \n",
      "frame=33630 fps=874 q=28.0 size=    2048kB time=00:27:58.90 bitrate=  10.0kbits/s speed=43.7x    \n",
      "frame=34103 fps=875 q=28.0 size=    2304kB time=00:28:22.55 bitrate=  11.1kbits/s speed=43.7x    \n",
      "frame=34520 fps=874 q=28.0 size=    2304kB time=00:28:43.40 bitrate=  11.0kbits/s speed=43.7x    \n",
      "frame=34996 fps=875 q=28.0 size=    2304kB time=00:29:07.20 bitrate=  10.8kbits/s speed=43.7x    \n",
      "frame=35435 fps=874 q=28.0 size=    2304kB time=00:29:29.15 bitrate=  10.7kbits/s speed=43.7x    \n",
      "frame=35890 fps=874 q=28.0 size=    2304kB time=00:29:51.90 bitrate=  10.5kbits/s speed=43.7x    \n",
      "frame=36362 fps=874 q=28.0 size=    2304kB time=00:30:15.50 bitrate=  10.4kbits/s speed=43.7x    \n",
      "frame=36833 fps=875 q=28.0 size=    2304kB time=00:30:39.05 bitrate=  10.3kbits/s speed=43.7x    \n",
      "frame=37280 fps=874 q=28.0 size=    2304kB time=00:31:01.40 bitrate=  10.1kbits/s speed=43.7x    \n",
      "frame=37785 fps=874 q=28.0 size=    2304kB time=00:31:26.65 bitrate=  10.0kbits/s speed=43.7x    \n",
      "frame=38289 fps=875 q=28.0 size=    2560kB time=00:31:51.85 bitrate=  11.0kbits/s speed=43.7x    \n",
      "frame=38724 fps=874 q=28.0 size=    2560kB time=00:32:13.60 bitrate=  10.8kbits/s speed=43.7x    \n",
      "frame=39164 fps=874 q=28.0 size=    2560kB time=00:32:35.60 bitrate=  10.7kbits/s speed=43.6x    \n",
      "frame=39666 fps=875 q=28.0 size=    2560kB time=00:33:00.70 bitrate=  10.6kbits/s speed=43.7x    \n",
      "frame=40137 fps=876 q=28.0 size=    2560kB time=00:33:24.25 bitrate=  10.5kbits/s speed=43.7x    \n",
      "frame=40603 fps=876 q=28.0 size=    2560kB time=00:33:47.55 bitrate=  10.3kbits/s speed=43.7x    \n",
      "frame=41062 fps=876 q=28.0 size=    2560kB time=00:34:10.50 bitrate=  10.2kbits/s speed=43.7x    \n",
      "frame=41514 fps=876 q=28.0 size=    2560kB time=00:34:33.10 bitrate=  10.1kbits/s speed=43.7x    \n",
      "frame=41985 fps=876 q=28.0 size=    2816kB time=00:34:56.65 bitrate=  11.0kbits/s speed=43.7x    \n",
      "frame=42461 fps=876 q=28.0 size=    2816kB time=00:35:20.45 bitrate=  10.9kbits/s speed=43.7x    \n",
      "frame=42929 fps=876 q=28.0 size=    2816kB time=00:35:43.85 bitrate=  10.8kbits/s speed=43.7x    \n",
      "frame=43381 fps=876 q=28.0 size=    2816kB time=00:36:06.45 bitrate=  10.6kbits/s speed=43.7x    \n",
      "frame=43861 fps=876 q=28.0 size=    2816kB time=00:36:30.45 bitrate=  10.5kbits/s speed=43.7x    \n",
      "frame=44311 fps=876 q=28.0 size=    2816kB time=00:36:52.95 bitrate=  10.4kbits/s speed=43.7x    \n",
      "frame=44785 fps=876 q=28.0 size=    2816kB time=00:37:16.65 bitrate=  10.3kbits/s speed=43.7x    \n",
      "frame=45280 fps=876 q=28.0 size=    2816kB time=00:37:41.40 bitrate=  10.2kbits/s speed=43.7x    \n",
      "frame=45731 fps=876 q=28.0 size=    3072kB time=00:38:03.95 bitrate=  11.0kbits/s speed=43.8x    \n",
      "frame=46201 fps=876 q=28.0 size=    3072kB time=00:38:27.45 bitrate=  10.9kbits/s speed=43.7x    \n",
      "frame=46686 fps=876 q=28.0 size=    3072kB time=00:38:51.70 bitrate=  10.8kbits/s speed=43.8x    \n",
      "frame=47146 fps=876 q=28.0 size=    3072kB time=00:39:14.70 bitrate=  10.7kbits/s speed=43.8x    \n",
      "frame=47620 fps=876 q=28.0 size=    3072kB time=00:39:38.40 bitrate=  10.6kbits/s speed=43.7x    \n",
      "frame=48099 fps=877 q=28.0 size=    3072kB time=00:40:02.35 bitrate=  10.5kbits/s speed=43.8x    \n",
      "frame=48556 fps=876 q=28.0 size=    3072kB time=00:40:25.20 bitrate=  10.4kbits/s speed=43.8x    \n",
      "frame=49038 fps=877 q=28.0 size=    3072kB time=00:40:49.30 bitrate=  10.3kbits/s speed=43.8x    \n",
      "frame=49510 fps=877 q=28.0 size=    3072kB time=00:41:12.90 bitrate=  10.2kbits/s speed=43.8x    \n",
      "frame=49712 fps=877 q=-1.0 Lsize=    3919kB time=00:41:25.45 bitrate=  12.9kbits/s speed=43.9x    \n",
      "video:3336kB audio:0kB subtitle:0kB other streams:0kB global headers:0kB muxing overhead: 17.465261%\n",
      "[libx264 @ 000001a99399cd80] frame I:201   Avg QP:17.42  size:   942\n",
      "[libx264 @ 000001a99399cd80] frame P:12526 Avg QP:19.99  size:   143\n",
      "[libx264 @ 000001a99399cd80] frame B:36985 Avg QP:21.23  size:    39\n",
      "[libx264 @ 000001a99399cd80] consecutive B-frames:  0.8%  0.0%  0.0% 99.2%\n",
      "[libx264 @ 000001a99399cd80] mb I  I16..4: 21.1% 75.0%  3.9%\n",
      "[libx264 @ 000001a99399cd80] mb P  I16..4:  0.1%  0.1%  0.0%  P16..4: 24.9%  3.4%  3.2%  0.0%  0.0%    skip:68.3%\n",
      "[libx264 @ 000001a99399cd80] mb B  I16..4:  0.0%  0.0%  0.0%  B16..8: 16.0%  0.0%  0.0%  direct: 0.0%  skip:84.0%  L0:39.7% L1:60.2% BI: 0.1%\n",
      "[libx264 @ 000001a99399cd80] 8x8 transform intra:73.4% inter:98.5%\n",
      "[libx264 @ 000001a99399cd80] coded y,u,v intra: 53.7% 0.0% 0.0% inter: 0.9% 0.0% 0.0%\n",
      "[libx264 @ 000001a99399cd80] i16 v,h,dc,p:  5% 13%  4% 79%\n",
      "[libx264 @ 000001a99399cd80] i8 v,h,dc,ddl,ddr,vr,hd,vl,hu: 19% 15% 14%  8% 13%  8% 10%  8%  6%\n",
      "[libx264 @ 000001a99399cd80] i4 v,h,dc,ddl,ddr,vr,hd,vl,hu: 35% 18% 24%  2%  9%  3%  5%  2%  1%\n",
      "[libx264 @ 000001a99399cd80] Weighted P-Frames: Y:8.3% UV:0.0%\n",
      "[libx264 @ 000001a99399cd80] ref P L0: 67.0%  8.0% 17.9%  6.2%  1.0%\n",
      "[libx264 @ 000001a99399cd80] ref B L0: 80.8% 15.3%  3.9%\n",
      "[libx264 @ 000001a99399cd80] ref B L1: 94.8%  5.2%\n",
      "[libx264 @ 000001a99399cd80] kb/s:10.99\n",
      "\n",
      "%s has been transcoded\n",
      "video haven't been tracked\n",
      "\\\\10.10.47.163\\Data_archive\\qiushou\\miniscope_result\\Results_206552\\20201112_233436_30fps_20200804\\msCam_concat.avi is as large as 4.91GB\n"
     ]
    },
    {
     "name": "stdout",
     "output_type": "stream",
     "text": [
      "ffmpeg version N-93532-g772c73e61f Copyright (c) 2000-2019 the FFmpeg developers\n",
      "  built with gcc 8.2.1 (GCC) 20190212\n",
      "  configuration: --enable-gpl --enable-version3 --enable-sdl2 --enable-fontconfig --enable-gnutls --enable-iconv --enable-libass --enable-libdav1d --enable-libbluray --enable-libfreetype --enable-libmp3lame --enable-libopencore-amrnb --enable-libopencore-amrwb --enable-libopenjpeg --enable-libopus --enable-libshine --enable-libsnappy --enable-libsoxr --enable-libtheora --enable-libtwolame --enable-libvpx --enable-libwavpack --enable-libwebp --enable-libx264 --enable-libx265 --enable-libxml2 --enable-libzimg --enable-lzma --enable-zlib --enable-gmp --enable-libvidstab --enable-libvorbis --enable-libvo-amrwbenc --enable-libmysofa --enable-libspeex --enable-libxvid --enable-libaom --enable-libmfx --enable-amf --enable-ffnvcodec --enable-cuvid --enable-d3d11va --enable-nvenc --enable-nvdec --enable-dxva2 --enable-avisynth --enable-libopenmpt\n",
      "  libavutil      56. 26.100 / 56. 26.100\n",
      "  libavcodec     58. 48.101 / 58. 48.101\n",
      "  libavformat    58. 26.101 / 58. 26.101\n",
      "  libavdevice    58.  7.100 / 58.  7.100\n",
      "  libavfilter     7. 48.100 /  7. 48.100\n",
      "  libswscale      5.  4.100 /  5.  4.100\n",
      "  libswresample   3.  4.100 /  3.  4.100\n",
      "  libpostproc    55.  4.100 / 55.  4.100\n",
      "Input #0, avi, from '\\\\10.10.47.163\\Data_archive\\qiushou\\miniscope_result\\Results_206552\\20201112_233436_30fps_20200804\\msCam_concat.avi':\n",
      "  Metadata:\n",
      "    encoder         : Lavf58.29.100\n",
      "  Duration: 00:40:21.90, start: 0.000000, bitrate: 17427 kb/s\n",
      "    Stream #0:0: Video: rawvideo, bgr24, 219x165, 17424 kb/s, 20 fps, 20 tbr, 20 tbn, 20 tbc\n",
      "Stream mapping:\n",
      "  Stream #0:0 -> #0:0 (rawvideo (native) -> h264 (libx264))\n",
      "Press [q] to stop, [?] for help\n",
      "[swscaler @ 0000024ff976bd00] Warning: data is not aligned! This can lead to a speed loss\n",
      "[libx264 @ 0000024ff96fcd80] using cpu capabilities: MMX2 SSE2Fast SSSE3 SSE4.2 AVX FMA3 BMI2 AVX2\n",
      "[libx264 @ 0000024ff96fcd80] profile High 4:4:4 Predictive, level 1.2, 4:4:4, 8-bit\n",
      "[libx264 @ 0000024ff96fcd80] 264 - core 157 r2969 d4099dd - H.264/MPEG-4 AVC codec - Copyleft 2003-2019 - http://www.videolan.org/x264.html - options: cabac=1 ref=3 deblock=1:0:0 analyse=0x3:0x113 me=hex subme=7 psy=1 psy_rd=1.00:0.00 mixed_ref=1 me_range=16 chroma_me=1 trellis=1 8x8dct=1 cqm=0 deadzone=21,11 fast_pskip=1 chroma_qp_offset=4 threads=5 lookahead_threads=1 sliced_threads=0 nr=0 decimate=1 interlaced=0 bluray_compat=0 constrained_intra=0 bframes=3 b_pyramid=2 b_adapt=1 b_bias=0 direct=1 weightb=1 open_gop=0 weightp=2 keyint=250 keyint_min=20 scenecut=40 intra_refresh=0 rc_lookahead=40 rc=crf mbtree=1 crf=23.0 qcomp=0.60 qpmin=0 qpmax=69 qpstep=4 ip_ratio=1.40 aq=1:1.00\n",
      "Output #0, mp4, to '\\\\10.10.47.163\\Data_archive\\qiushou\\miniscope_result\\Results_206552\\20201112_233436_30fps_20200804\\msCam_concat.mp4':\n",
      "  Metadata:\n",
      "    encoder         : Lavf58.26.101\n",
      "    Stream #0:0: Video: h264 (libx264) (avc1 / 0x31637661), yuv444p, 219x165, q=-1--1, 20 fps, 10240 tbn, 20 tbc\n",
      "    Metadata:\n",
      "      encoder         : Lavc58.48.101 libx264\n",
      "    Side data:\n",
      "      cpb: bitrate max/min/avg: 0/0/0 buffer size: 0 vbv_delay: -1\n",
      "frame=  433 fps=0.0 q=28.0 size=       0kB time=00:00:19.05 bitrate=   0.0kbits/s speed=  37x    \n",
      "frame=  864 fps=826 q=28.0 size=       0kB time=00:00:40.60 bitrate=   0.0kbits/s speed=38.8x    \n",
      "frame= 1324 fps=842 q=28.0 size=       0kB time=00:01:03.60 bitrate=   0.0kbits/s speed=40.4x    \n",
      "frame= 1779 fps=851 q=28.0 size=       0kB time=00:01:26.35 bitrate=   0.0kbits/s speed=41.3x    \n",
      "frame= 2226 fps=858 q=28.0 size=       0kB time=00:01:48.70 bitrate=   0.0kbits/s speed=41.9x    \n",
      "frame= 2677 fps=860 q=28.0 size=       0kB time=00:02:11.25 bitrate=   0.0kbits/s speed=42.2x    \n",
      "frame= 3126 fps=861 q=28.0 size=       0kB time=00:02:33.70 bitrate=   0.0kbits/s speed=42.3x    \n",
      "frame= 3601 fps=869 q=28.0 size=       0kB time=00:02:57.45 bitrate=   0.0kbits/s speed=42.8x    \n",
      "frame= 4019 fps=862 q=28.0 size=     256kB time=00:03:18.35 bitrate=  10.6kbits/s speed=42.6x    \n",
      "frame= 4453 fps=862 q=28.0 size=     256kB time=00:03:40.05 bitrate=   9.5kbits/s speed=42.6x    \n",
      "frame= 4909 fps=862 q=28.0 size=     256kB time=00:04:02.85 bitrate=   8.6kbits/s speed=42.6x    \n",
      "frame= 5363 fps=865 q=28.0 size=     256kB time=00:04:25.55 bitrate=   7.9kbits/s speed=42.8x    \n",
      "frame= 5761 fps=860 q=28.0 size=     256kB time=00:04:45.45 bitrate=   7.3kbits/s speed=42.6x    \n",
      "frame= 6212 fps=861 q=28.0 size=     256kB time=00:05:08.00 bitrate=   6.8kbits/s speed=42.7x    \n",
      "frame= 6682 fps=861 q=28.0 size=     256kB time=00:05:31.50 bitrate=   6.3kbits/s speed=42.7x    \n",
      "frame= 7167 fps=861 q=28.0 size=     512kB time=00:05:55.75 bitrate=  11.8kbits/s speed=42.7x    \n",
      "frame= 7668 fps=861 q=28.0 size=     512kB time=00:06:20.80 bitrate=  11.0kbits/s speed=42.8x    \n",
      "frame= 8101 fps=860 q=28.0 size=     512kB time=00:06:42.45 bitrate=  10.4kbits/s speed=42.7x    \n",
      "frame= 8532 fps=860 q=28.0 size=     512kB time=00:07:04.00 bitrate=   9.9kbits/s speed=42.7x    \n",
      "frame= 8965 fps=860 q=28.0 size=     512kB time=00:07:25.65 bitrate=   9.4kbits/s speed=42.7x    \n",
      "frame= 9397 fps=858 q=28.0 size=     512kB time=00:07:47.25 bitrate=   9.0kbits/s speed=42.7x    \n",
      "frame= 9841 fps=859 q=28.0 size=     512kB time=00:08:09.45 bitrate=   8.6kbits/s speed=42.7x    \n",
      "frame=10358 fps=865 q=28.0 size=     512kB time=00:08:35.30 bitrate=   8.1kbits/s speed=43.1x    \n",
      "frame=10802 fps=866 q=28.0 size=     768kB time=00:08:57.50 bitrate=  11.7kbits/s speed=43.1x    \n",
      "frame=11254 fps=866 q=28.0 size=     768kB time=00:09:20.10 bitrate=  11.2kbits/s speed=43.1x    \n",
      "frame=11714 fps=866 q=28.0 size=     768kB time=00:09:43.10 bitrate=  10.8kbits/s speed=43.1x    \n",
      "frame=12138 fps=865 q=28.0 size=     768kB time=00:10:04.30 bitrate=  10.4kbits/s speed=43.1x    \n",
      "frame=12576 fps=865 q=28.0 size=     768kB time=00:10:26.20 bitrate=  10.0kbits/s speed=43.1x    \n",
      "frame=13025 fps=866 q=28.0 size=     768kB time=00:10:48.65 bitrate=   9.7kbits/s speed=43.1x    \n",
      "frame=13457 fps=866 q=28.0 size=     768kB time=00:11:10.25 bitrate=   9.4kbits/s speed=43.1x    \n",
      "frame=13918 fps=866 q=28.0 size=     768kB time=00:11:33.30 bitrate=   9.1kbits/s speed=43.1x    \n",
      "frame=14406 fps=868 q=28.0 size=     768kB time=00:11:57.70 bitrate=   8.8kbits/s speed=43.3x    \n",
      "frame=14808 fps=865 q=28.0 size=    1024kB time=00:12:17.80 bitrate=  11.4kbits/s speed=43.1x    \n",
      "frame=15287 fps=867 q=28.0 size=    1024kB time=00:12:41.75 bitrate=  11.0kbits/s speed=43.2x    \n",
      "frame=15723 fps=867 q=28.0 size=    1024kB time=00:13:03.55 bitrate=  10.7kbits/s speed=43.2x    \n",
      "frame=16177 fps=866 q=28.0 size=    1024kB time=00:13:26.25 bitrate=  10.4kbits/s speed=43.2x    \n",
      "frame=16649 fps=866 q=28.0 size=    1024kB time=00:13:49.85 bitrate=  10.1kbits/s speed=43.2x    \n",
      "frame=17136 fps=866 q=28.0 size=    1024kB time=00:14:14.20 bitrate=   9.8kbits/s speed=43.1x    \n",
      "frame=17640 fps=866 q=28.0 size=    1024kB time=00:14:39.40 bitrate=   9.5kbits/s speed=43.2x    \n",
      "frame=18132 fps=869 q=28.0 size=    1024kB time=00:15:04.00 bitrate=   9.3kbits/s speed=43.3x    \n",
      "frame=18576 fps=867 q=28.0 size=    1024kB time=00:15:26.20 bitrate=   9.1kbits/s speed=43.2x    \n",
      "frame=19021 fps=867 q=28.0 size=    1280kB time=00:15:48.45 bitrate=  11.1kbits/s speed=43.2x    \n",
      "frame=19501 fps=869 q=28.0 size=    1280kB time=00:16:12.45 bitrate=  10.8kbits/s speed=43.3x    \n",
      "frame=19945 fps=869 q=28.0 size=    1280kB time=00:16:34.65 bitrate=  10.5kbits/s speed=43.3x    \n",
      "frame=20395 fps=870 q=28.0 size=    1280kB time=00:16:57.15 bitrate=  10.3kbits/s speed=43.4x    \n",
      "frame=20836 fps=869 q=28.0 size=    1280kB time=00:17:19.20 bitrate=  10.1kbits/s speed=43.4x    \n",
      "frame=21290 fps=870 q=28.0 size=    1280kB time=00:17:41.90 bitrate=   9.9kbits/s speed=43.4x    \n",
      "frame=21736 fps=870 q=28.0 size=    1280kB time=00:18:04.20 bitrate=   9.7kbits/s speed=43.4x    \n",
      "frame=22181 fps=869 q=28.0 size=    1280kB time=00:18:26.45 bitrate=   9.5kbits/s speed=43.4x    \n",
      "frame=22623 fps=869 q=28.0 size=    1280kB time=00:18:48.55 bitrate=   9.3kbits/s speed=43.4x    \n",
      "frame=23077 fps=869 q=28.0 size=    1536kB time=00:19:11.25 bitrate=  10.9kbits/s speed=43.4x    \n",
      "frame=23525 fps=869 q=28.0 size=    1536kB time=00:19:33.65 bitrate=  10.7kbits/s speed=43.4x    \n",
      "frame=23985 fps=870 q=28.0 size=    1536kB time=00:19:56.65 bitrate=  10.5kbits/s speed=43.4x    \n",
      "frame=24449 fps=870 q=28.0 size=    1536kB time=00:20:19.85 bitrate=  10.3kbits/s speed=43.4x    \n",
      "frame=24920 fps=870 q=28.0 size=    1536kB time=00:20:43.40 bitrate=  10.1kbits/s speed=43.4x    \n",
      "frame=25411 fps=869 q=28.0 size=    1536kB time=00:21:07.95 bitrate=   9.9kbits/s speed=43.4x    \n",
      "frame=25861 fps=869 q=28.0 size=    1536kB time=00:21:30.45 bitrate=   9.8kbits/s speed=43.4x    \n",
      "frame=26327 fps=869 q=28.0 size=    1536kB time=00:21:53.75 bitrate=   9.6kbits/s speed=43.4x    \n",
      "frame=26811 fps=870 q=28.0 size=    1792kB time=00:22:17.95 bitrate=  11.0kbits/s speed=43.4x    \n",
      "frame=27255 fps=870 q=28.0 size=    1792kB time=00:22:40.15 bitrate=  10.8kbits/s speed=43.4x    \n",
      "frame=27671 fps=869 q=28.0 size=    1792kB time=00:23:00.95 bitrate=  10.6kbits/s speed=43.3x    \n",
      "frame=28143 fps=870 q=28.0 size=    1792kB time=00:23:24.55 bitrate=  10.5kbits/s speed=43.4x    \n",
      "frame=28607 fps=869 q=28.0 size=    1792kB time=00:23:47.75 bitrate=  10.3kbits/s speed=43.4x    \n",
      "frame=29039 fps=868 q=28.0 size=    1792kB time=00:24:09.35 bitrate=  10.1kbits/s speed=43.3x    \n",
      "frame=29542 fps=868 q=28.0 size=    1792kB time=00:24:34.50 bitrate=  10.0kbits/s speed=43.3x    \n",
      "frame=30057 fps=870 q=28.0 size=    1792kB time=00:25:00.25 bitrate=   9.8kbits/s speed=43.4x    \n",
      "frame=30512 fps=870 q=28.0 size=    2048kB time=00:25:23.00 bitrate=  11.0kbits/s speed=43.4x    \n",
      "frame=30979 fps=870 q=28.0 size=    2048kB time=00:25:46.35 bitrate=  10.8kbits/s speed=43.4x    \n",
      "frame=31439 fps=871 q=28.0 size=    2048kB time=00:26:09.35 bitrate=  10.7kbits/s speed=43.5x    \n",
      "frame=31888 fps=871 q=28.0 size=    2048kB time=00:26:31.80 bitrate=  10.5kbits/s speed=43.5x    \n",
      "frame=32343 fps=870 q=28.0 size=    2048kB time=00:26:54.55 bitrate=  10.4kbits/s speed=43.5x    \n",
      "frame=32794 fps=871 q=28.0 size=    2048kB time=00:27:17.10 bitrate=  10.2kbits/s speed=43.5x    \n",
      "frame=33230 fps=871 q=28.0 size=    2048kB time=00:27:38.90 bitrate=  10.1kbits/s speed=43.5x    \n",
      "frame=33695 fps=871 q=28.0 size=    2048kB time=00:28:02.15 bitrate=  10.0kbits/s speed=43.5x    \n",
      "frame=34131 fps=871 q=28.0 size=    2048kB time=00:28:23.95 bitrate=   9.8kbits/s speed=43.5x    \n",
      "frame=34590 fps=871 q=28.0 size=    2304kB time=00:28:46.90 bitrate=  10.9kbits/s speed=43.5x    \n",
      "frame=35050 fps=871 q=28.0 size=    2304kB time=00:29:09.90 bitrate=  10.8kbits/s speed=43.5x    \n",
      "frame=35510 fps=871 q=28.0 size=    2304kB time=00:29:32.90 bitrate=  10.6kbits/s speed=43.5x    \n",
      "frame=35968 fps=871 q=28.0 size=    2304kB time=00:29:55.80 bitrate=  10.5kbits/s speed=43.5x    \n",
      "frame=36441 fps=871 q=28.0 size=    2304kB time=00:30:19.45 bitrate=  10.4kbits/s speed=43.5x    \n",
      "frame=36932 fps=871 q=28.0 size=    2304kB time=00:30:44.00 bitrate=  10.2kbits/s speed=43.5x    \n",
      "frame=37435 fps=872 q=28.0 size=    2304kB time=00:31:09.15 bitrate=  10.1kbits/s speed=43.5x    \n",
      "frame=37868 fps=871 q=28.0 size=    2304kB time=00:31:30.80 bitrate=  10.0kbits/s speed=43.5x    \n",
      "frame=38299 fps=871 q=28.0 size=    2560kB time=00:31:52.35 bitrate=  11.0kbits/s speed=43.5x    \n",
      "frame=38793 fps=872 q=28.0 size=    2560kB time=00:32:17.05 bitrate=  10.8kbits/s speed=43.5x    \n",
      "frame=39235 fps=871 q=28.0 size=    2560kB time=00:32:39.15 bitrate=  10.7kbits/s speed=43.5x    \n",
      "frame=39731 fps=872 q=28.0 size=    2560kB time=00:33:03.95 bitrate=  10.6kbits/s speed=43.6x    \n",
      "frame=40186 fps=873 q=28.0 size=    2560kB time=00:33:26.70 bitrate=  10.5kbits/s speed=43.6x    \n",
      "frame=40655 fps=873 q=28.0 size=    2560kB time=00:33:50.15 bitrate=  10.3kbits/s speed=43.6x    \n",
      "frame=41103 fps=873 q=28.0 size=    2560kB time=00:34:12.55 bitrate=  10.2kbits/s speed=43.6x    \n",
      "frame=41559 fps=873 q=28.0 size=    2560kB time=00:34:35.35 bitrate=  10.1kbits/s speed=43.6x    \n",
      "frame=41998 fps=873 q=28.0 size=    2560kB time=00:34:57.30 bitrate=  10.0kbits/s speed=43.6x    \n",
      "frame=42437 fps=873 q=28.0 size=    2816kB time=00:35:19.25 bitrate=  10.9kbits/s speed=43.6x    \n",
      "frame=42908 fps=873 q=28.0 size=    2816kB time=00:35:42.80 bitrate=  10.8kbits/s speed=43.6x    \n",
      "frame=43364 fps=873 q=28.0 size=    2816kB time=00:36:05.60 bitrate=  10.7kbits/s speed=43.6x    \n",
      "frame=43848 fps=873 q=28.0 size=    2816kB time=00:36:29.80 bitrate=  10.5kbits/s speed=43.6x    \n",
      "frame=44300 fps=873 q=28.0 size=    2816kB time=00:36:52.40 bitrate=  10.4kbits/s speed=43.6x    \n",
      "frame=44776 fps=873 q=28.0 size=    2816kB time=00:37:16.20 bitrate=  10.3kbits/s speed=43.6x    \n",
      "frame=45274 fps=873 q=28.0 size=    2816kB time=00:37:41.10 bitrate=  10.2kbits/s speed=43.6x    \n",
      "frame=45728 fps=873 q=28.0 size=    2816kB time=00:38:03.80 bitrate=  10.1kbits/s speed=43.6x    \n",
      "frame=46200 fps=873 q=28.0 size=    2816kB time=00:38:27.40 bitrate=  10.0kbits/s speed=43.6x    \n",
      "frame=46687 fps=873 q=28.0 size=    3072kB time=00:38:51.75 bitrate=  10.8kbits/s speed=43.6x    \n",
      "frame=47119 fps=873 q=28.0 size=    3072kB time=00:39:13.35 bitrate=  10.7kbits/s speed=43.6x    \n",
      "frame=47556 fps=873 q=28.0 size=    3072kB time=00:39:35.20 bitrate=  10.6kbits/s speed=43.6x    \n",
      "frame=48055 fps=873 q=28.0 size=    3072kB time=00:40:00.15 bitrate=  10.5kbits/s speed=43.6x    \n",
      "frame=48438 fps=874 q=-1.0 Lsize=    3784kB time=00:40:21.75 bitrate=  12.8kbits/s speed=43.7x    \n",
      "video:3216kB audio:0kB subtitle:0kB other streams:0kB global headers:0kB muxing overhead: 17.652197%\n",
      "[libx264 @ 0000024ff96fcd80] frame I:195   Avg QP:17.49  size:   951\n",
      "[libx264 @ 0000024ff96fcd80] frame P:12207 Avg QP:20.10  size:   139\n",
      "[libx264 @ 0000024ff96fcd80] frame B:36036 Avg QP:21.49  size:    39\n",
      "[libx264 @ 0000024ff96fcd80] consecutive B-frames:  0.8%  0.0%  0.0% 99.2%\n",
      "[libx264 @ 0000024ff96fcd80] mb I  I16..4: 20.4% 76.2%  3.4%\n",
      "[libx264 @ 0000024ff96fcd80] mb P  I16..4:  0.1%  0.1%  0.0%  P16..4: 25.6%  3.2%  3.1%  0.0%  0.0%    skip:68.0%\n",
      "[libx264 @ 0000024ff96fcd80] mb B  I16..4:  0.0%  0.0%  0.0%  B16..8: 16.7%  0.0%  0.0%  direct: 0.0%  skip:83.3%  L0:40.3% L1:59.6% BI: 0.1%\n",
      "[libx264 @ 0000024ff96fcd80] 8x8 transform intra:74.6% inter:98.5%\n",
      "[libx264 @ 0000024ff96fcd80] coded y,u,v intra: 54.4% 0.0% 0.0% inter: 0.9% 0.0% 0.0%\n",
      "[libx264 @ 0000024ff96fcd80] i16 v,h,dc,p:  5% 15%  3% 78%\n",
      "[libx264 @ 0000024ff96fcd80] i8 v,h,dc,ddl,ddr,vr,hd,vl,hu: 18% 15% 13%  8% 13%  8% 11%  7%  6%\n",
      "[libx264 @ 0000024ff96fcd80] i4 v,h,dc,ddl,ddr,vr,hd,vl,hu: 36% 17% 22%  3%  9%  3%  7%  2%  2%\n",
      "[libx264 @ 0000024ff96fcd80] Weighted P-Frames: Y:7.7% UV:0.0%\n",
      "[libx264 @ 0000024ff96fcd80] ref P L0: 66.3%  7.3% 18.9%  6.4%  1.0%\n",
      "[libx264 @ 0000024ff96fcd80] ref B L0: 80.2% 15.8%  4.1%\n",
      "[libx264 @ 0000024ff96fcd80] ref B L1: 94.7%  5.3%\n",
      "[libx264 @ 0000024ff96fcd80] kb/s:10.88\n",
      "\n",
      "%s has been transcoded\n",
      "video haven't been tracked\n",
      "\\\\10.10.47.163\\Data_archive\\qiushou\\miniscope_result\\Results_206552\\20201112_233609_30fps_20200805\\msCam_concat.avi is as large as 4.52GB\n"
     ]
    },
    {
     "name": "stdout",
     "output_type": "stream",
     "text": [
      "ffmpeg version N-93532-g772c73e61f Copyright (c) 2000-2019 the FFmpeg developers\n",
      "  built with gcc 8.2.1 (GCC) 20190212\n",
      "  configuration: --enable-gpl --enable-version3 --enable-sdl2 --enable-fontconfig --enable-gnutls --enable-iconv --enable-libass --enable-libdav1d --enable-libbluray --enable-libfreetype --enable-libmp3lame --enable-libopencore-amrnb --enable-libopencore-amrwb --enable-libopenjpeg --enable-libopus --enable-libshine --enable-libsnappy --enable-libsoxr --enable-libtheora --enable-libtwolame --enable-libvpx --enable-libwavpack --enable-libwebp --enable-libx264 --enable-libx265 --enable-libxml2 --enable-libzimg --enable-lzma --enable-zlib --enable-gmp --enable-libvidstab --enable-libvorbis --enable-libvo-amrwbenc --enable-libmysofa --enable-libspeex --enable-libxvid --enable-libaom --enable-libmfx --enable-amf --enable-ffnvcodec --enable-cuvid --enable-d3d11va --enable-nvenc --enable-nvdec --enable-dxva2 --enable-avisynth --enable-libopenmpt\n",
      "  libavutil      56. 26.100 / 56. 26.100\n",
      "  libavcodec     58. 48.101 / 58. 48.101\n",
      "  libavformat    58. 26.101 / 58. 26.101\n",
      "  libavdevice    58.  7.100 / 58.  7.100\n",
      "  libavfilter     7. 48.100 /  7. 48.100\n",
      "  libswscale      5.  4.100 /  5.  4.100\n",
      "  libswresample   3.  4.100 /  3.  4.100\n",
      "  libpostproc    55.  4.100 / 55.  4.100\n",
      "Input #0, avi, from '\\\\10.10.47.163\\Data_archive\\qiushou\\miniscope_result\\Results_206552\\20201112_233609_30fps_20200805\\msCam_concat.avi':\n",
      "  Metadata:\n",
      "    encoder         : Lavf58.29.100\n",
      "  Duration: 00:37:06.80, start: 0.000000, bitrate: 17427 kb/s\n",
      "    Stream #0:0: Video: rawvideo, bgr24, 219x165, 17424 kb/s, 20 fps, 20 tbr, 20 tbn, 20 tbc\n",
      "Stream mapping:\n",
      "  Stream #0:0 -> #0:0 (rawvideo (native) -> h264 (libx264))\n",
      "Press [q] to stop, [?] for help\n",
      "[swscaler @ 000002109442bd00] Warning: data is not aligned! This can lead to a speed loss\n",
      "[libx264 @ 00000210943bcd80] using cpu capabilities: MMX2 SSE2Fast SSSE3 SSE4.2 AVX FMA3 BMI2 AVX2\n",
      "[libx264 @ 00000210943bcd80] profile High 4:4:4 Predictive, level 1.2, 4:4:4, 8-bit\n",
      "[libx264 @ 00000210943bcd80] 264 - core 157 r2969 d4099dd - H.264/MPEG-4 AVC codec - Copyleft 2003-2019 - http://www.videolan.org/x264.html - options: cabac=1 ref=3 deblock=1:0:0 analyse=0x3:0x113 me=hex subme=7 psy=1 psy_rd=1.00:0.00 mixed_ref=1 me_range=16 chroma_me=1 trellis=1 8x8dct=1 cqm=0 deadzone=21,11 fast_pskip=1 chroma_qp_offset=4 threads=5 lookahead_threads=1 sliced_threads=0 nr=0 decimate=1 interlaced=0 bluray_compat=0 constrained_intra=0 bframes=3 b_pyramid=2 b_adapt=1 b_bias=0 direct=1 weightb=1 open_gop=0 weightp=2 keyint=250 keyint_min=20 scenecut=40 intra_refresh=0 rc_lookahead=40 rc=crf mbtree=1 crf=23.0 qcomp=0.60 qpmin=0 qpmax=69 qpstep=4 ip_ratio=1.40 aq=1:1.00\n",
      "Output #0, mp4, to '\\\\10.10.47.163\\Data_archive\\qiushou\\miniscope_result\\Results_206552\\20201112_233609_30fps_20200805\\msCam_concat.mp4':\n",
      "  Metadata:\n",
      "    encoder         : Lavf58.26.101\n",
      "    Stream #0:0: Video: h264 (libx264) (avc1 / 0x31637661), yuv444p, 219x165, q=-1--1, 20 fps, 10240 tbn, 20 tbc\n",
      "    Metadata:\n",
      "      encoder         : Lavc58.48.101 libx264\n",
      "    Side data:\n",
      "      cpb: bitrate max/min/avg: 0/0/0 buffer size: 0 vbv_delay: -1\n",
      "frame=  451 fps=0.0 q=28.0 size=       0kB time=00:00:19.95 bitrate=   0.0kbits/s speed=38.7x    \n",
      "frame=  888 fps=861 q=28.0 size=       0kB time=00:00:41.80 bitrate=   0.0kbits/s speed=40.5x    \n",
      "frame= 1324 fps=864 q=28.0 size=       0kB time=00:01:03.60 bitrate=   0.0kbits/s speed=41.5x    \n",
      "frame= 1779 fps=867 q=28.0 size=       0kB time=00:01:26.35 bitrate=   0.0kbits/s speed=42.1x    \n",
      "frame= 2226 fps=867 q=28.0 size=       0kB time=00:01:48.70 bitrate=   0.0kbits/s speed=42.3x    \n",
      "frame= 2677 fps=865 q=28.0 size=       0kB time=00:02:11.25 bitrate=   0.0kbits/s speed=42.4x    \n",
      "frame= 3126 fps=862 q=28.0 size=       0kB time=00:02:33.70 bitrate=   0.0kbits/s speed=42.4x    \n",
      "frame= 3607 fps=865 q=28.0 size=       0kB time=00:02:57.75 bitrate=   0.0kbits/s speed=42.6x    \n",
      "frame= 4061 fps=869 q=28.0 size=     256kB time=00:03:20.45 bitrate=  10.5kbits/s speed=42.9x    \n",
      "frame= 4508 fps=864 q=28.0 size=     256kB time=00:03:42.80 bitrate=   9.4kbits/s speed=42.7x    \n",
      "frame= 4967 fps=862 q=28.0 size=     256kB time=00:04:05.75 bitrate=   8.5kbits/s speed=42.6x    \n",
      "frame= 5388 fps=860 q=28.0 size=     256kB time=00:04:26.80 bitrate=   7.9kbits/s speed=42.6x    \n",
      "frame= 5824 fps=860 q=28.0 size=     256kB time=00:04:48.60 bitrate=   7.3kbits/s speed=42.6x    \n",
      "frame= 6278 fps=862 q=28.0 size=     256kB time=00:05:11.30 bitrate=   6.7kbits/s speed=42.8x    \n",
      "frame= 6750 fps=861 q=28.0 size=     256kB time=00:05:34.90 bitrate=   6.3kbits/s speed=42.7x    \n",
      "frame= 7237 fps=863 q=28.0 size=     256kB time=00:05:59.25 bitrate=   5.8kbits/s speed=42.8x    \n",
      "frame= 7732 fps=868 q=28.0 size=     512kB time=00:06:24.00 bitrate=  10.9kbits/s speed=43.1x    \n",
      "frame= 8172 fps=864 q=28.0 size=     512kB time=00:06:46.00 bitrate=  10.3kbits/s speed=42.9x    \n",
      "frame= 8677 fps=865 q=28.0 size=     512kB time=00:07:11.25 bitrate=   9.7kbits/s speed=  43x    \n",
      "frame= 9108 fps=862 q=28.0 size=     512kB time=00:07:32.80 bitrate=   9.3kbits/s speed=42.9x    \n",
      "frame= 9613 fps=863 q=28.0 size=     512kB time=00:07:58.05 bitrate=   8.8kbits/s speed=42.9x    \n",
      "frame=10130 fps=870 q=28.0 size=     512kB time=00:08:23.90 bitrate=   8.3kbits/s speed=43.3x    \n",
      "frame=10580 fps=871 q=28.0 size=     512kB time=00:08:46.40 bitrate=   8.0kbits/s speed=43.3x    \n",
      "frame=11021 fps=871 q=28.0 size=     512kB time=00:09:08.45 bitrate=   7.6kbits/s speed=43.3x    \n",
      "frame=11475 fps=871 q=28.0 size=     512kB time=00:09:31.15 bitrate=   7.3kbits/s speed=43.4x    \n",
      "frame=11933 fps=872 q=28.0 size=     768kB time=00:09:54.05 bitrate=  10.6kbits/s speed=43.4x    \n",
      "frame=12407 fps=873 q=28.0 size=     768kB time=00:10:17.75 bitrate=  10.2kbits/s speed=43.4x    \n",
      "frame=12841 fps=872 q=28.0 size=     768kB time=00:10:39.45 bitrate=   9.8kbits/s speed=43.4x    \n",
      "frame=13296 fps=873 q=25.0 size=     768kB time=00:11:02.20 bitrate=   9.5kbits/s speed=43.5x    \n",
      "frame=13756 fps=873 q=28.0 size=     768kB time=00:11:25.20 bitrate=   9.2kbits/s speed=43.5x    \n",
      "frame=14187 fps=871 q=28.0 size=     768kB time=00:11:46.75 bitrate=   8.9kbits/s speed=43.4x    \n",
      "frame=14675 fps=874 q=28.0 size=     768kB time=00:12:11.15 bitrate=   8.6kbits/s speed=43.5x    \n",
      "frame=15105 fps=872 q=28.0 size=     768kB time=00:12:32.65 bitrate=   8.4kbits/s speed=43.5x    \n",
      "frame=15546 fps=873 q=25.0 size=     768kB time=00:12:54.70 bitrate=   8.1kbits/s speed=43.5x    \n",
      "frame=15980 fps=872 q=28.0 size=    1024kB time=00:13:16.40 bitrate=  10.5kbits/s speed=43.5x    \n",
      "frame=16445 fps=873 q=28.0 size=    1024kB time=00:13:39.65 bitrate=  10.2kbits/s speed=43.5x    \n",
      "frame=16925 fps=873 q=28.0 size=    1024kB time=00:14:03.65 bitrate=   9.9kbits/s speed=43.5x    \n",
      "frame=17424 fps=873 q=28.0 size=    1024kB time=00:14:28.60 bitrate=   9.7kbits/s speed=43.5x    \n",
      "frame=17876 fps=874 q=28.0 size=    1024kB time=00:14:51.20 bitrate=   9.4kbits/s speed=43.6x    \n",
      "frame=18346 fps=876 q=28.0 size=    1024kB time=00:15:14.70 bitrate=   9.2kbits/s speed=43.7x    \n",
      "frame=18792 fps=873 q=28.0 size=    1024kB time=00:15:37.00 bitrate=   9.0kbits/s speed=43.5x    \n",
      "frame=19296 fps=874 q=25.0 size=    1024kB time=00:16:02.20 bitrate=   8.7kbits/s speed=43.6x    \n",
      "frame=19786 fps=876 q=28.0 size=    1024kB time=00:16:26.70 bitrate=   8.5kbits/s speed=43.7x    \n",
      "frame=20260 fps=877 q=28.0 size=    1280kB time=00:16:50.40 bitrate=  10.4kbits/s speed=43.8x    \n",
      "frame=20694 fps=877 q=28.0 size=    1280kB time=00:17:12.10 bitrate=  10.2kbits/s speed=43.7x    \n",
      "frame=21148 fps=878 q=28.0 size=    1280kB time=00:17:34.80 bitrate=   9.9kbits/s speed=43.8x    \n",
      "frame=21610 fps=878 q=28.0 size=    1280kB time=00:17:57.90 bitrate=   9.7kbits/s speed=43.8x    \n",
      "frame=22045 fps=877 q=28.0 size=    1280kB time=00:18:19.65 bitrate=   9.5kbits/s speed=43.8x    \n",
      "frame=22508 fps=878 q=28.0 size=    1280kB time=00:18:42.80 bitrate=   9.3kbits/s speed=43.8x    \n",
      "frame=22967 fps=878 q=28.0 size=    1280kB time=00:19:05.75 bitrate=   9.2kbits/s speed=43.8x    \n",
      "frame=23409 fps=878 q=28.0 size=    1280kB time=00:19:27.85 bitrate=   9.0kbits/s speed=43.8x    \n",
      "frame=23880 fps=878 q=28.0 size=    1536kB time=00:19:51.40 bitrate=  10.6kbits/s speed=43.8x    \n",
      "frame=24322 fps=877 q=28.0 size=    1536kB time=00:20:13.50 bitrate=  10.4kbits/s speed=43.8x    \n",
      "frame=24787 fps=877 q=28.0 size=    1536kB time=00:20:36.75 bitrate=  10.2kbits/s speed=43.7x    \n",
      "frame=25274 fps=877 q=28.0 size=    1536kB time=00:21:01.10 bitrate=  10.0kbits/s speed=43.7x    \n",
      "frame=25782 fps=877 q=28.0 size=    1536kB time=00:21:26.50 bitrate=   9.8kbits/s speed=43.8x    \n",
      "frame=26247 fps=877 q=28.0 size=    1536kB time=00:21:49.75 bitrate=   9.6kbits/s speed=43.8x    \n",
      "frame=26658 fps=876 q=28.0 size=    1536kB time=00:22:10.30 bitrate=   9.5kbits/s speed=43.7x    \n",
      "frame=27153 fps=876 q=28.0 size=    1536kB time=00:22:35.05 bitrate=   9.3kbits/s speed=43.7x    \n",
      "frame=27586 fps=875 q=28.0 size=    1536kB time=00:22:56.70 bitrate=   9.1kbits/s speed=43.7x    \n",
      "frame=28078 fps=877 q=28.0 size=    1792kB time=00:23:21.30 bitrate=  10.5kbits/s speed=43.8x    \n",
      "frame=28522 fps=876 q=28.0 size=    1792kB time=00:23:43.50 bitrate=  10.3kbits/s speed=43.7x    \n",
      "frame=29026 fps=876 q=28.0 size=    1792kB time=00:24:08.70 bitrate=  10.1kbits/s speed=43.7x    \n",
      "frame=29530 fps=877 q=28.0 size=    1792kB time=00:24:33.90 bitrate=  10.0kbits/s speed=43.8x    \n",
      "frame=30035 fps=878 q=28.0 size=    1792kB time=00:24:59.15 bitrate=   9.8kbits/s speed=43.8x    \n",
      "frame=30490 fps=878 q=28.0 size=    1792kB time=00:25:21.90 bitrate=   9.6kbits/s speed=43.8x    \n",
      "frame=30926 fps=878 q=28.0 size=    1792kB time=00:25:43.70 bitrate=   9.5kbits/s speed=43.8x    \n",
      "frame=31388 fps=878 q=28.0 size=    1792kB time=00:26:06.80 bitrate=   9.4kbits/s speed=43.8x    \n",
      "frame=31828 fps=878 q=28.0 size=    1792kB time=00:26:28.80 bitrate=   9.2kbits/s speed=43.8x    \n",
      "frame=32279 fps=878 q=28.0 size=    2048kB time=00:26:51.35 bitrate=  10.4kbits/s speed=43.8x    \n",
      "frame=32728 fps=878 q=28.0 size=    2048kB time=00:27:13.80 bitrate=  10.3kbits/s speed=43.8x    \n",
      "frame=33175 fps=878 q=28.0 size=    2048kB time=00:27:36.15 bitrate=  10.1kbits/s speed=43.8x    \n",
      "frame=33621 fps=878 q=28.0 size=    2048kB time=00:27:58.45 bitrate=  10.0kbits/s speed=43.8x    \n",
      "frame=34110 fps=878 q=28.0 size=    2048kB time=00:28:22.90 bitrate=   9.9kbits/s speed=43.8x    \n",
      "frame=34569 fps=878 q=28.0 size=    2048kB time=00:28:45.85 bitrate=   9.7kbits/s speed=43.8x    \n",
      "frame=35041 fps=878 q=28.0 size=    2048kB time=00:29:09.45 bitrate=   9.6kbits/s speed=43.9x    \n",
      "frame=35489 fps=878 q=28.0 size=    2048kB time=00:29:31.85 bitrate=   9.5kbits/s speed=43.8x    \n",
      "frame=35947 fps=878 q=28.0 size=    2048kB time=00:29:54.75 bitrate=   9.3kbits/s speed=43.8x    \n",
      "frame=36420 fps=878 q=28.0 size=    2304kB time=00:30:18.40 bitrate=  10.4kbits/s speed=43.8x    \n",
      "frame=36911 fps=877 q=28.0 size=    2304kB time=00:30:42.95 bitrate=  10.2kbits/s speed=43.8x    \n",
      "frame=37354 fps=877 q=28.0 size=    2304kB time=00:31:05.10 bitrate=  10.1kbits/s speed=43.8x    \n",
      "frame=37809 fps=877 q=28.0 size=    2304kB time=00:31:27.85 bitrate=  10.0kbits/s speed=43.8x    \n",
      "frame=38279 fps=877 q=28.0 size=    2304kB time=00:31:51.35 bitrate=   9.9kbits/s speed=43.8x    \n",
      "frame=38717 fps=877 q=28.0 size=    2304kB time=00:32:13.25 bitrate=   9.8kbits/s speed=43.8x    \n",
      "frame=39215 fps=877 q=28.0 size=    2304kB time=00:32:38.15 bitrate=   9.6kbits/s speed=43.8x    \n",
      "frame=39718 fps=878 q=28.0 size=    2304kB time=00:33:03.30 bitrate=   9.5kbits/s speed=43.9x    \n",
      "frame=40167 fps=878 q=28.0 size=    2304kB time=00:33:25.75 bitrate=   9.4kbits/s speed=43.9x    \n",
      "frame=40622 fps=879 q=28.0 size=    2560kB time=00:33:48.50 bitrate=  10.3kbits/s speed=43.9x    \n",
      "frame=41084 fps=879 q=28.0 size=    2560kB time=00:34:11.60 bitrate=  10.2kbits/s speed=43.9x    \n",
      "frame=41542 fps=878 q=28.0 size=    2560kB time=00:34:34.50 bitrate=  10.1kbits/s speed=43.9x    \n",
      "frame=41975 fps=878 q=28.0 size=    2560kB time=00:34:56.15 bitrate=  10.0kbits/s speed=43.9x    \n",
      "frame=42451 fps=878 q=28.0 size=    2560kB time=00:35:19.95 bitrate=   9.9kbits/s speed=43.9x    \n",
      "frame=42919 fps=878 q=28.0 size=    2560kB time=00:35:43.35 bitrate=   9.8kbits/s speed=43.9x    \n",
      "frame=43371 fps=878 q=28.0 size=    2560kB time=00:36:05.95 bitrate=   9.7kbits/s speed=43.9x    \n",
      "frame=43851 fps=878 q=28.0 size=    2560kB time=00:36:29.95 bitrate=   9.6kbits/s speed=43.9x    \n",
      "frame=44306 fps=878 q=28.0 size=    2816kB time=00:36:52.70 bitrate=  10.4kbits/s speed=43.9x    \n",
      "frame=44536 fps=879 q=-1.0 Lsize=    3356kB time=00:37:06.65 bitrate=  12.3kbits/s speed=43.9x    \n",
      "video:2834kB audio:0kB subtitle:0kB other streams:0kB global headers:0kB muxing overhead: 18.422983%\n",
      "[libx264 @ 00000210943bcd80] frame I:180   Avg QP:17.36  size:   935\n",
      "[libx264 @ 00000210943bcd80] frame P:11222 Avg QP:19.74  size:   130\n",
      "[libx264 @ 00000210943bcd80] frame B:33134 Avg QP:20.93  size:    38\n",
      "[libx264 @ 00000210943bcd80] consecutive B-frames:  0.8%  0.0%  0.0% 99.2%\n",
      "[libx264 @ 00000210943bcd80] mb I  I16..4: 22.2% 73.9%  3.9%\n",
      "[libx264 @ 00000210943bcd80] mb P  I16..4:  0.1%  0.1%  0.0%  P16..4: 23.9%  3.0%  3.0%  0.0%  0.0%    skip:69.9%\n",
      "[libx264 @ 00000210943bcd80] mb B  I16..4:  0.0%  0.0%  0.0%  B16..8: 15.6%  0.0%  0.0%  direct: 0.0%  skip:84.4%  L0:40.0% L1:59.9% BI: 0.1%\n",
      "[libx264 @ 00000210943bcd80] 8x8 transform intra:72.0% inter:98.5%\n",
      "[libx264 @ 00000210943bcd80] coded y,u,v intra: 52.2% 0.0% 0.0% inter: 0.8% 0.0% 0.0%\n",
      "[libx264 @ 00000210943bcd80] i16 v,h,dc,p:  4% 14%  3% 79%\n",
      "[libx264 @ 00000210943bcd80] i8 v,h,dc,ddl,ddr,vr,hd,vl,hu: 18% 16% 13%  7% 13%  8% 12%  7%  6%\n",
      "[libx264 @ 00000210943bcd80] i4 v,h,dc,ddl,ddr,vr,hd,vl,hu: 36% 19% 22%  3%  8%  3%  6%  2%  2%\n",
      "[libx264 @ 00000210943bcd80] Weighted P-Frames: Y:6.2% UV:0.0%\n",
      "[libx264 @ 00000210943bcd80] ref P L0: 67.6%  6.9% 18.3%  6.3%  0.8%\n",
      "[libx264 @ 00000210943bcd80] ref B L0: 80.0% 15.8%  4.2%\n",
      "[libx264 @ 00000210943bcd80] ref B L1: 94.8%  5.2%\n",
      "[libx264 @ 00000210943bcd80] kb/s:10.42\n",
      "\n",
      "%s has been transcoded\n"
     ]
    }
   ],
   "source": [
    "for video in videos:\n",
    "    Video(video).transcode()"
   ]
  },
  {
   "cell_type": "code",
   "execution_count": null,
   "metadata": {},
   "outputs": [],
   "source": []
  }
 ],
 "metadata": {
  "kernelspec": {
   "display_name": "Python 3",
   "language": "python",
   "name": "python3"
  },
  "language_info": {
   "codemirror_mode": {
    "name": "ipython",
    "version": 3
   },
   "file_extension": ".py",
   "mimetype": "text/x-python",
   "name": "python",
   "nbconvert_exporter": "python",
   "pygments_lexer": "ipython3",
   "version": "3.8.3"
  },
  "toc": {
   "base_numbering": 1,
   "nav_menu": {},
   "number_sections": true,
   "sideBar": true,
   "skip_h1_title": false,
   "title_cell": "Table of Contents",
   "title_sidebar": "Contents",
   "toc_cell": false,
   "toc_position": {},
   "toc_section_display": true,
   "toc_window_display": false
  }
 },
 "nbformat": 4,
 "nbformat_minor": 4
}
